<?xml version="1.0" encoding="UTF-8" standalone="no"?>
<!-- Created with Inkscape (http://www.inkscape.org/) -->

<svg
   width="743.28601"
   height="743.28601"
   viewBox="0 0 743.28601 743.28601"
   version="1.1"
   id="svg1"
   xml:space="preserve"
   sodipodi:docname="hoppy_logo_circle_smooth.svg"
   inkscape:version="1.4.2 (f4327f4, 2025-05-13)"
   xmlns:inkscape="http://www.inkscape.org/namespaces/inkscape"
   xmlns:sodipodi="http://sodipodi.sourceforge.net/DTD/sodipodi-0.dtd"
   xmlns="http://www.w3.org/2000/svg"
   xmlns:svg="http://www.w3.org/2000/svg"><sodipodi:namedview
     id="namedview1"
     pagecolor="#ffffff"
     bordercolor="#000000"
     borderopacity="0.25"
     inkscape:showpageshadow="2"
     inkscape:pageopacity="0.0"
     inkscape:pagecheckerboard="0"
     inkscape:deskcolor="#d1d1d1"
     inkscape:zoom="0.71574074"
     inkscape:cx="435.21345"
     inkscape:cy="384.91591"
     inkscape:window-width="1920"
     inkscape:window-height="991"
     inkscape:window-x="-9"
     inkscape:window-y="951"
     inkscape:window-maximized="1"
     inkscape:current-layer="svg1" /><defs
     id="defs1"><clipPath
       clipPathUnits="userSpaceOnUse"
       id="clipPath1"><ellipse
         style="fill:#1a1a1a;fill-opacity:0.444828;stroke:#6e6e6e;stroke-width:2.42895;stroke-linecap:round;stroke-linejoin:round;stroke-opacity:0.975845"
         id="ellipse1"
         cx="975.91205"
         cy="523.23419"
         rx="367.63766"
         ry="371.39081" /></clipPath></defs><circle
     style="fill:#ffffff;stroke:#000000;stroke-width:0;stroke-linecap:round;stroke-linejoin:round;stroke-opacity:0.968958"
     id="path2"
     cx="371.64301"
     cy="371.64301"
     r="371.64301" /><g
     id="g2"
     inkscape:label="logo"
     style="display:inline"
     transform="translate(-525.32981,-125.74374)"><path
       style="fill:#ff0000;fill-opacity:0.972414;stroke:#fd0000;stroke-width:0;stroke-linecap:round;stroke-linejoin:round;stroke-dasharray:none;stroke-opacity:0.968958"
       d="m 945.17465,737.62408 c -30.63123,-0.61774 -36.59404,-1.39244 -52.39328,-6.80703 -14.89552,-5.10488 -32.72957,-13.76367 -40.70808,-19.7646 -4.45419,-3.35015 -16.84082,-15.77346 -20.18896,-20.24873 -1.82264,-2.43623 -2.03141,-2.51472 -8.73221,-3.28325 -9.963,-1.14268 -15.42587,-3.21066 -24.32935,-9.20993 -7.5198,-5.06692 -13.61388,-12.43223 -17.19075,-20.77672 -2.61452,-6.09942 -4.81442,-16.09751 -4.81442,-21.88048 0,-6.85194 2.1984,-18.43054 4.42122,-23.28583 3.17179,-6.92808 9.37255,-11.47473 14.37059,-10.5371 l 2.49868,0.46876 -2.08768,0.89282 c -1.30687,0.5589 -2.96562,2.35919 -4.43508,4.81352 -4.82742,8.06291 -6.10251,15.17536 -3.63456,20.27347 1.94331,4.01435 4.55856,6.29899 12.72604,11.11725 10.18525,6.00862 11.43032,7.95875 12.85207,20.13004 1.01308,8.67275 2.05152,11.68584 4.6562,13.51024 1.76972,1.23956 4.04002,1.44662 4.04002,0.36847 0,-0.39699 -0.75204,-2.20587 -1.67119,-4.01973 -1.24525,-2.45738 -1.84965,-5.26811 -2.37141,-11.02804 -0.46387,-5.12086 -1.22082,-8.94026 -2.24252,-11.31529 -1.89571,-4.40668 -7.19,-9.55514 -13.01206,-12.65363 -2.35277,-1.25214 -5.33919,-3.37173 -6.63648,-4.7102 -3.38776,-3.49528 -3.31768,-8.02239 0.26095,-16.85626 1.44082,-3.55666 2.61967,-7.09321 2.61967,-7.85899 0,-0.76579 0.22838,-1.39233 0.5075,-1.39233 0.27913,0 2.80403,2.2791 5.61089,5.06468 5.85347,5.80907 5.93583,5.78721 7.17829,-1.90572 1.23927,-7.67314 2.1635,-11.54189 2.75733,-11.54189 0.30029,0 0.91586,-1.49321 1.36795,-3.31824 1.29206,-5.21591 7.79623,-19.93611 9.49156,-21.48124 0.84313,-0.76844 2.35445,-2.85353 3.35848,-4.63355 1.00403,-1.78002 2.30538,-3.42054 2.89189,-3.6456 0.58651,-0.22507 1.06638,-0.89637 1.06638,-1.49177 0,-1.41716 13.92513,-15.43724 18.86158,-18.99019 6.5024,-4.68003 19.02548,-12.31251 22.70375,-13.83734 1.92109,-0.79638 4.33605,-2.01217 5.36658,-2.70174 3.98841,-2.6688 18.81556,-8.3039 27.81583,-10.57147 28.3976,-7.15464 38.58034,-7.44602 70.55627,-2.01894 36.49216,6.19359 47.51166,6.58138 63.76226,2.24391 6.5081,-1.73709 9.4625,-3.5849 11.3348,-7.08926 1.7,-3.18198 1.3157,-3.54478 -4.9018,-4.62751 -8.8584,-1.54262 -19.4856,-4.95418 -23.0924,-7.41316 -1.9492,-1.32888 -3.965,-2.41614 -4.4794,-2.41614 -1.4554,0 -6.4755,-3.16133 -8.2139,-5.17262 -0.862,-0.99724 -2.0399,-1.81315 -2.6177,-1.81315 -1.5515,0 -6.4673,-4.69058 -8.4356,-8.04915 -2.36741,-4.03975 -5.04251,-12.17619 -5.57458,-16.95549 -0.54771,-4.91984 0.95808,-11.84764 3.92748,-18.06948 4.0695,-8.52694 14.591,-19.86642 24.5716,-26.482 4.4723,-2.96449 5.7832,-4.49645 3.8421,-4.49024 -0.4802,0.002 -8.4176,1.10249 -17.6385,2.44657 -10.4643,1.52531 -16.85306,2.18064 -16.99872,1.74365 -0.3713,-1.1139 -2.91125,-0.81051 -2.91125,0.34773 0,0.57633 -0.55835,1.04787 -1.24077,1.04787 -0.68243,0 -14.43566,1.62103 -30.56275,3.60228 -26.65292,3.27439 -30.65733,3.60411 -43.99209,3.62243 -11.16422,0.0153 -16.17264,-0.27151 -20.9573,-1.20029 -7.65795,-1.48652 -14.26546,-4.2635 -13.04603,-5.48292 1.27009,-1.27009 0.97138,-2.63723 -0.57623,-2.63723 -0.85898,0 -1.40313,0.4709 -1.41269,1.22251 -0.0247,1.9472 -2.51258,-1.61281 -4.1679,-5.96411 -1.83778,-4.83092 -1.77398,-6.75786 0.41972,-12.67615 1.5229,-4.10858 2.56477,-5.61541 6.29593,-9.10573 9.95276,-9.31032 31.80884,-16.37057 56.50971,-18.25455 17.50883,-1.33542 45.268,-0.0533 54.47684,2.51618 1.92109,0.53603 7.10803,1.31734 11.52653,1.73627 8.32,0.78882 21.3865,3.19357 31.0867,5.72117 13.0568,3.40228 13.4141,2.16524 1.5718,-5.44284 -15.983,-10.26821 -37.0299,-24.84436 -51.1708,-35.43867 -9.03878,-6.77179 -18.2046,-16.41043 -20.72288,-21.79186 -2.20681,-4.71587 -3.30847,-11.69323 -2.41088,-15.26948 0.6211,-2.47468 4.32343,-6.52896 7.39154,-8.09419 3.73854,-1.90726 10.50735,-3.50525 14.84766,-3.50525 5.82688,0 18.43136,2.50603 26.47796,5.26438 8.2114,2.81481 24.6289,10.63222 26.9553,12.8351 0.8484,0.80337 1.9771,1.46067 2.5082,1.46067 1.4596,0 11.3834,6.14546 19.4811,12.06401 25.7017,18.78524 52.9,47.49221 65.0803,68.69028 1.7879,3.11149 3.2507,5.86214 3.2507,6.11254 0,0.25042 -0.6287,0.4553 -1.3972,0.4553 -1.6366,0 -1.8971,1.94773 -0.3404,2.54509 0.5813,0.22304 1.4738,0.0594 1.9835,-0.36361 0.7344,-0.60944 1.5302,0.50069 3.8333,5.34702 1.5986,3.36387 2.9066,6.54151 2.9066,7.06142 0,0.51991 1.1102,2.77288 2.4671,5.00661 7.324,12.05661 12.7013,26.80735 16.1448,44.28709 2.2272,11.30607 2.3612,12.61773 1.3633,13.34738 -1.0081,0.73715 -1.0044,1.01395 0.041,3.10998 0.9828,1.97007 1.0848,3.91753 0.7095,13.54783 -0.6022,15.45158 -3.1293,31.82268 -6.5348,42.3337 -0.5602,1.72897 -1.2891,4.55821 -1.6198,6.28719 -0.3307,1.72898 -1.2678,5.02975 -2.0824,7.33506 -0.8146,2.3053 -2.3881,7.49223 -3.4966,11.52652 -1.1085,4.03428 -5.0403,16.76584 -8.7372,28.29236 -17.6654,55.07772 -21.6341,71.5903 -21.5753,89.76714 0.038,11.91143 0.7689,15.20348 5.8919,26.55811 4.4909,9.95327 4.6696,10.9023 2.6238,13.9334 -2.7175,4.02624 -6.9409,6.53037 -11.5632,6.85597 -8.0304,0.56569 -19.5586,-3.51748 -25.1505,-8.90806 -5.4026,-5.20802 -7.2445,-10.83036 -8.503,-25.95499 -0.8543,-10.26733 -2.4733,-14.29644 -7.5346,-18.75159 -4.4869,-3.94953 -7.3986,-5.13543 -11.2833,-4.59555 -4.7061,0.65403 -11.5345,4.18703 -14.2706,7.38355 -4.873,5.69295 -7.8299,14.5971 -6.546,19.71229 0.4806,1.91508 4.2344,3.88095 11.121,5.82412 3.4139,0.96329 4.6222,1.60226 4.3536,2.30227 -0.2867,0.74697 0.1162,0.87131 1.7587,0.54282 1.8004,-0.36009 2.2286,-0.16806 2.7637,1.23946 0.8955,2.35526 2.0549,2.85129 3.1533,1.3491 0.9015,-1.23287 1.0772,-1.19688 3.9238,0.80373 2.7068,1.90241 4.8405,4.79488 6.9,9.35355 0.9452,2.09225 -0.6251,8.006 -2.8906,10.88617 -7.234,9.19656 -47.4772,12.97578 -122.13935,11.47007 z m -51.2992,-23.39372 c -0.93077,-3.70847 -6.75286,-14.94321 -8.12425,-15.67715 -0.78201,-0.41852 -2.27079,-0.66298 -3.30838,-0.54324 -3.00364,0.34663 -2.97844,3.94156 0.0596,8.49998 3.69221,5.54002 7.88179,9.53145 10.00465,9.53145 1.61299,0 1.77059,-0.20859 1.36841,-1.81104 z m -33.51768,-13.38301 c -0.84004,-3.66344 -5.05191,-10.99365 -6.92407,-12.05045 -2.33813,-1.31985 -4.21536,-0.33406 -4.53853,2.38332 -0.38552,3.24158 6.97382,11.58822 10.21747,11.58822 1.47997,0 1.6319,-0.23442 1.24513,-1.92109 z m 12.86345,-4.64181 c 0,-2.34218 -2.62771,-10.60698 -4.63207,-14.56906 -1.42812,-2.82299 -1.98451,-3.31824 -3.72792,-3.31824 -2.44791,0 -3.55599,1.61601 -2.83379,4.13273 0.77356,2.69572 4.82234,10.56938 6.7656,13.15705 2.06131,2.74488 4.42818,3.06425 4.42818,0.59752 z m 19.92791,-15.23007 c -1.51549,-8.82026 -2.18849,-11.12404 -4.06163,-13.90359 -1.30097,-1.93052 -2.05106,-2.37589 -4.00148,-2.37589 -5.12881,0 -4.32687,6.18735 2.24519,17.32271 1.86012,3.15168 4.08313,6.31869 4.94003,7.03778 1.52988,1.28385 1.56194,1.28138 1.7763,-0.13707 0.12007,-0.79449 -0.28421,-4.36926 -0.89841,-7.94394 z m -11.08344,2.61085 c -0.6025,-4.3957 -3.67696,-13.58367 -5.0548,-15.10617 -1.77787,-1.96453 -4.35912,-1.7476 -4.90112,0.41189 -1.01405,4.04034 2.80735,13.37855 6.87568,16.80183 2.64333,2.22422 3.58561,1.57951 3.08024,-2.10755 z m -54.13234,-1.53418 c 1.74599,-1.58009 1.60511,-2.67623 -0.56313,-4.38177 -2.64788,-2.08282 -5.0034,-1.90646 -5.58688,0.41831 -0.37463,1.49262 -0.0898,2.19177 1.4228,3.49288 2.24579,1.93175 3.02674,2.00948 4.72721,0.47058 z m 200.52435,-1.76834 c 5.1172,-9.86672 6.7508,-46.00288 2.9275,-64.75901 -4.0354,-19.79683 -14.306,-37.8274 -28.7439,-50.46171 -10.70289,-9.36584 -26.17251,-16.66776 -43.01421,-20.30342 -6.15586,-1.32887 -9.288,-1.53825 -23.18466,-1.54981 -14.13694,-0.0118 -16.9485,0.17773 -23.40233,1.5772 -9.0691,1.96657 -16.0824,4.28474 -23.57697,7.79311 -5.62637,2.63383 -5.76326,2.66082 -5.76326,1.13649 0,-1.71193 -1.19292,-3.23799 -2.53113,-3.23799 -1.25912,0 -5.15321,3.46134 -5.15321,4.58054 0,0.5299 0.79919,1.38219 1.77599,1.89399 l 1.77598,0.93053 -3.20464,2.3014 c -13.40992,9.63028 -26.89549,28.3597 -34.25631,47.57685 -3.37231,8.80423 -3.6122,9.60503 -4.81301,16.06727 -1.44096,7.75461 -1.42502,9.24713 0.0957,8.95427 0.88803,-0.17102 1.75268,-2.36942 3.38593,-8.60878 2.58806,-9.88697 4.57378,-15.20256 8.88367,-23.78079 7.67188,-15.2698 17.7971,-27.2199 29.8107,-35.18354 5.39536,-3.5765 6.96091,-4.30077 8.59152,-3.97465 1.61749,0.3235 2.43516,-0.0424 4.33082,-1.93808 4.05987,-4.05988 19.32319,-8.23469 35.00642,-9.57494 28.93697,-2.4729 59.75692,8.14469 77.5176,26.70511 9.2699,9.68727 15.0851,19.78916 19.8935,34.55827 4.0015,12.29073 4.3603,15.71679 4.0399,38.57547 -0.273,19.47956 -0.3315,20.17652 -2.1498,25.61307 -1.0281,3.07373 -1.8733,6.16179 -1.8782,6.86234 -0.015,2.11505 2.1786,1.05754 3.6364,-1.75319 z m -178.29128,-0.11921 c -0.003,-2.18219 -3.40022,-14.51733 -4.29604,-15.59673 -0.95436,-1.14993 -4.9192,-1.20338 -6.04114,-0.0814 -0.46106,0.46106 -0.83829,1.51908 -0.83829,2.35116 0,2.11715 4.5334,10.95113 6.94435,13.53206 2.2195,2.37598 4.23404,2.27835 4.23112,-0.20505 z m -36.04476,-2.43198 c 0.19906,-0.32209 -1.04803,-2.61102 -2.77131,-5.0865 -2.93181,-4.2115 -3.17901,-4.92615 -3.84491,-11.11553 -1.30997,-12.17578 -3.27437,-15.36283 -12.5,-20.28004 -4.05236,-2.15988 -7.18449,-4.91536 -11.39372,-10.02354 -3.22592,-3.91487 -4.58009,0.69659 -1.85663,6.32252 1.80358,3.72571 4.61501,6.21732 11.31966,10.03198 6.40462,3.64396 7.74629,5.76915 8.82009,13.97089 0.9443,7.2127 3.57572,12.93587 6.98596,15.19405 2.43754,1.61409 4.60117,2.02122 5.24086,0.98617 z m 22.07498,-1.8314 c 0,-0.8998 -1.46621,-3.58648 -3.25824,-5.97041 -1.79204,-2.38393 -3.9545,-6.2573 -4.80548,-8.60748 -1.68604,-4.65639 -3.39761,-6.4214 -4.51986,-4.66096 -1.01048,1.58512 -0.82054,6.01817 0.38109,8.89406 2.27723,5.45018 9.82146,13.45234 11.6292,12.3351 0.31531,-0.19487 0.57329,-1.09051 0.57329,-1.99031 z m -38.43003,-9.63342 c -0.0133,-5.90339 -1.66636,-10.86175 -4.63442,-13.90131 -4.1609,-4.26115 -11.50947,-6.33516 -10.24326,-2.89098 0.25254,0.68693 2.12965,3.27753 4.17135,5.7569 2.33018,2.8297 4.09655,5.82053 4.74463,8.03364 1.28988,4.40482 2.85597,6.66928 4.61245,6.66928 1.17301,0 1.35642,-0.49855 1.34925,-3.66753 z m 305.03159,-4.3845 c 7.4801,-4.38368 11.9654,-15.78042 10.1195,-25.71287 -2.9608,-15.93139 -14.181,-23.20299 -29.3686,-19.03321 -2.0823,0.5717 -4.068,0.86518 -4.4126,0.65219 -0.3446,-0.213 -0.9986,0.10418 -1.4533,0.70483 -0.9104,1.20249 -16.7772,12.99541 -17.0875,12.70015 -0.1063,-0.10121 1.5258,-6.01108 3.6269,-13.13305 5.037,-17.0729 5.9973,-22.46141 5.9973,-33.65056 0,-11.47184 -0.8198,-16.13744 -3.9638,-22.55962 -4.6544,-9.50713 -12.5111,-15.47593 -21.1849,-16.09435 -11.3077,-0.80621 -17.1926,4.41677 -17.9839,15.96106 -0.6139,8.9568 1.2151,10.4424 2.557,2.0769 0.9844,-6.13674 3.6949,-11.46217 6.8156,-13.39089 10.8414,-6.70032 26.736,5.49864 29.6425,22.75027 2.9683,17.61911 -5.0456,46.51796 -20.2518,73.02956 -5.2225,9.10516 -6.089,11.17208 -5.4175,12.92211 0.4507,1.17438 3.6196,1.43363 4.2888,0.35085 0.2374,-0.38421 1.0419,-0.69857 1.7876,-0.69857 0.8629,0 1.356,-0.47907 1.356,-1.31755 0,-3.60141 11.4547,-17.1617 20.7919,-24.61371 12.3106,-9.82517 22.3124,-13.17206 30.0283,-10.04833 5.9275,2.39968 12.0671,11.27883 12.0434,17.4171 -0.022,5.56785 -3.2797,13.29949 -7.1849,17.04957 -2.0788,1.99625 -3.1862,2.436 -7.7456,3.07578 -3.6954,0.51855 -5.3199,1.04075 -5.3199,1.71007 0,2.77209 7.4904,2.68227 12.3195,-0.14773 z M 850.44194,661.2553 c 0.4206,-1.67581 -0.55841,-13.44213 -1.41846,-17.04771 -0.89063,-3.73383 -3.29866,-4.68623 -6.38421,-2.52503 -1.89351,1.32627 -2.01804,4.07477 -0.42767,9.43903 2.7321,9.21524 7.10846,14.60368 8.23034,10.13371 z m 18.44987,-4.88454 c 0.43726,-8.32402 -2.64295,-15.77567 -6.52102,-15.77567 -1.94689,0 -3.81991,2.3888 -3.81914,4.87083 10e-4,4.01986 7.29412,15.8621 9.35112,15.18444 0.42773,-0.14092 0.8728,-2.06674 0.98904,-4.2796 z m 15.42701,-8.97214 c 1.86873,-5.7102 2.47318,-10.87467 1.55256,-13.26537 -1.07953,-2.80338 -4.51516,-2.72318 -5.99574,0.13995 -2.3116,4.47015 -0.24521,19.49997 2.4518,17.83313 0.31075,-0.19206 1.20687,-2.31053 1.99138,-4.70771 z m -57.037,-3.83458 c 2.0668,-2.17535 8.21624,-14.42436 8.21624,-16.36586 0,-2.14165 -2.30485,-1.45854 -6.32895,1.87576 -6.45218,5.34619 -7.47135,6.48531 -8.71424,9.73976 -1.121,2.93531 -1.1244,3.27067 -0.0497,4.91094 1.57819,2.40863 4.50041,2.34038 6.8766,-0.1606 z m 71.79946,-9.45578 c 1.35175,-1.78089 3.65933,-5.46266 5.12795,-8.18171 2.55641,-4.73302 2.62217,-5.01706 1.54298,-6.66412 -2.39618,-3.65704 -5.79892,-1.14261 -8.49121,6.27455 -0.92307,2.54304 -1.88532,6.38501 -2.13833,8.53771 -0.56493,4.8067 0.32989,4.81429 3.95861,0.0336 z m 151.12522,-8.81477 c 0.9786,-1.79803 2.1139,-4.76201 2.5228,-6.58663 0.9812,-4.37828 0.1284,-6.05485 -3.0799,-6.05485 -2.9948,0 -5.5143,2.82088 -7.006,7.84426 -1.0797,3.63565 -1.466,12.47932 -0.5837,13.36164 0.7547,0.75473 6.1774,-4.94586 8.1468,-8.56442 z m -243.23046,6.46111 c 2.31741,-2.09723 1.16523,-5.13105 -1.94866,-5.13105 -2.48896,0 -3.75959,0.74907 -3.75959,2.21639 0,3.69429 3.09854,5.27642 5.70825,2.91466 z m 51.75049,-4.73365 c 3.83111,-6.38432 4.98091,-9.77173 3.96268,-11.67434 -1.01636,-1.89909 -4.53286,-1.71199 -5.85884,0.31172 -1.93188,2.94842 -3.86788,9.74106 -3.86788,13.57082 0,3.22598 0.18028,3.75002 1.2225,3.55339 0.67239,-0.12685 2.71607,-2.71956 4.54154,-5.76159 z m 8.70258,3.61941 c 2.21771,-2.42538 3.81457,-6.03679 3.33601,-7.54461 -0.62646,-1.97381 -4.19642,-1.83762 -5.49286,0.20955 -2.1091,3.33041 -2.20888,8.90686 -0.15938,8.90686 0.48347,0 1.52577,-0.70731 2.31623,-1.5718 z m -51.02493,-2.35087 c 1.07215,-1.63631 1.08975,-2.019 0.16871,-3.66753 -1.4172,-2.53659 -4.37355,-2.83192 -5.84642,-0.58405 -1.08287,1.65267 -0.91403,3.35797 0.51538,5.2053 1.16578,1.50663 3.87863,1.00545 5.16233,-0.95372 z m 13.08992,-1.29717 c 2.48625,-2.48625 7.59927,-10.65565 8.42871,-13.46709 0.63892,-2.16569 -1.08359,-2.07317 -5.15768,0.27703 -8.43109,4.86359 -11.93719,8.47554 -11.93719,12.29759 0,4.10492 4.9445,4.61413 8.66616,0.89247 z m 48.10578,-0.89271 c 2.1966,-2.4361 6.79857,-11.0212 6.79857,-12.68293 0,-3.69356 -4.17407,-5.58134 -6.5459,-2.96049 -2.68918,2.9715 -5.16836,14.69888 -3.46704,16.40021 0.80717,0.80717 2.07288,0.50917 3.21437,-0.75679 z m -74.14039,-3.94847 c 0.965,-2.11794 -0.0741,-5.56255 -1.77763,-5.89284 -1.88697,-0.36585 -3.90696,1.91897 -3.90696,4.41918 0,2.72947 0.392,3.15176 2.92572,3.15176 1.42766,0 2.21151,-0.47679 2.75887,-1.6781 z m 96.75098,-7.73493 c 8.34746,-6.97017 10.88318,-9.79789 10.59522,-11.81527 -0.15881,-1.11254 -0.7909,-1.53093 -2.56986,-1.70099 -1.89288,-0.18095 -2.8354,0.23333 -4.76792,2.09573 -3.42437,3.30012 -9.60608,11.0018 -10.94683,13.63845 -2.78422,5.4753 -0.85892,4.91996 7.68939,-2.21792 z m 180.68733,1.43037 c 0.851,-0.54829 4.9481,-2.16574 9.1048,-3.59433 8.7808,-3.01783 11.0051,-4.46091 9.8151,-6.3676 -0.5547,-0.88873 -1.5962,-1.24917 -3.4929,-1.2089 -4.3085,0.0915 -17.722,8.88997 -17.722,11.62458 0,0.78264 0.5425,0.67537 2.295,-0.45375 z m -5.9271,-6.51281 c 4.0711,-6.04087 7.8236,-13.05744 7.8236,-14.62898 0,-1.8232 -2.4308,-3.99763 -3.8571,-3.45029 -1.5222,0.58408 -4.8323,8.10241 -6.5785,14.94187 -0.7921,3.10231 -1.4402,5.98113 -1.4402,6.39738 0,1.7289 1.5071,0.5164 4.0522,-3.25998 z m -35.5908,-0.5143 c 3.0376,-2.74428 7.0884,-10.35247 7.0884,-13.31332 0,-2.56004 -1.8322,-4.51003 -4.2376,-4.51003 -3.9765,0 -7.6382,7.37259 -7.6382,15.37905 0,5.76578 0.7098,6.12817 4.7874,2.4443 z m -202.55561,-1.58144 c 2.5801,-2.32823 9.15243,-12.63068 9.15243,-14.34689 0,-0.78527 -0.9792,-0.50943 -6.98577,1.9679 -6.85296,2.82641 -11.17724,7.48959 -11.17724,12.05323 0,2.60767 0.40359,2.94543 3.51948,2.94543 2.0088,0 3.23777,-0.58632 5.4911,-2.61967 z m 20.96455,-0.79282 c 3.48293,-4.39755 6.44377,-10.57884 6.21036,-12.96525 -0.17029,-1.7411 -0.55975,-2.17499 -2.1129,-2.35396 -2.44358,-0.28157 -4.08349,2.25421 -6.57268,10.16321 -2.53608,8.05804 -1.51228,10.19065 2.47522,5.156 z m 29.48126,0.5631 c 3.90652,-2.78167 5.30232,-8.2721 2.54232,-10.00025 -2.62862,-1.64589 -6.81112,3.51979 -6.81112,8.41219 0,3.53151 1.01119,3.90769 4.2688,1.58806 z m 197.7004,-1.93633 c 0.9163,-0.71106 2.0589,-1.15641 2.5392,-0.98966 0.4803,0.16676 0.8732,-0.19042 0.8732,-0.79373 0,-0.60331 2.3073,-3.69451 5.1274,-6.86934 2.82,-3.17483 5.4921,-6.45906 5.9379,-7.29829 2.6326,-4.95597 -2.3477,-8.83549 -6.1487,-4.78957 -0.8878,0.945 -3.2897,4.95308 -5.3377,8.90685 -2.0479,3.95377 -3.734,6.63854 -3.7469,5.96616 -0.013,-0.67238 -0.3477,-1.22251 -0.7439,-1.22251 -1.1221,0 -1.6808,2.17372 -0.7126,2.77211 0.6752,0.41728 0.6267,0.99854 -0.2196,2.63523 -1.6013,3.09651 -0.4325,3.90535 2.4317,1.68275 z m -209.02214,-5.31223 c 3.83186,-5.54297 6.31388,-10.41713 6.33902,-12.44845 0.0242,-1.95508 -3.28891,-2.88666 -5.38403,-1.51389 -2.20478,1.44463 -4.76786,7.11868 -5.77582,12.78628 -1.42523,8.01389 -0.12537,8.331 4.82083,1.17606 z m 236.18614,-0.0727 c 0,-1.02689 -1.4913,-1.37812 -2.3225,-0.54698 -0.6317,0.63175 0.9339,2.41186 1.7031,1.93644 0.3407,-0.21055 0.6194,-0.83581 0.6194,-1.38946 z m -3.9363,-1.75591 c 2.5444,-2.00145 2.5701,-5.72632 0.051,-7.37698 -1.6638,-1.09011 -1.959,-1.09204 -4.1915,-0.0274 -3.2795,1.56388 -3.5244,4.63553 -0.5804,7.28045 2.146,1.92799 2.4184,1.93514 4.721,0.12394 z m -75.0552,-7.60392 c 3.2284,-6.79341 4.3951,-13.20369 2.9086,-15.98124 -1.2389,-2.31491 -5.1493,-2.08428 -6.9209,0.40818 -2.7777,3.90805 -3.8408,13.25154 -2.1858,19.21086 1.2269,4.41773 2.8121,3.48731 6.1981,-3.6378 z m -135.6184,4.22571 c 3.78596,-1.94741 6.67014,-5.20524 6.12601,-6.91965 -0.61498,-1.93763 -1.90535,-2.26694 -4.31323,-1.10077 -1.9366,0.93793 -6.55601,7.00675 -6.55601,8.61307 0,1.12284 1.85994,0.89044 4.74323,-0.59265 z m 32.06378,-2.51936 c 4.96706,-2.41633 6.58293,-3.55071 6.90912,-4.85033 1.03868,-4.13848 -2.77518,-4.2824 -8.69665,-0.32819 -4.40879,2.94407 -7.0764,5.72569 -7.0764,7.37883 0,1.60913 2.10967,1.08545 8.86393,-2.20031 z m -84.9479,-3.7507 c 5.43889,-3.90262 10.60743,-10.64949 9.22061,-12.03632 -0.64842,-0.64842 -8.60395,1.76494 -12.55743,3.80937 -2.69925,1.39584 -5.8056,5.03548 -5.8056,6.80229 0,1.70509 2.39742,4.13786 4.07774,4.13786 0.70589,0 2.98499,-1.22094 5.06468,-2.7132 z m 54.20583,-8.65927 c 3.5802,-3.46351 6.50945,-6.73369 6.50945,-7.26707 0,-1.63865 -2.18732,-4.4135 -3.47902,-4.4135 -4.09242,0 -14.47668,14.75326 -13.03275,18.51608 0.64398,1.67819 2.54404,0.37971 10.00232,-6.83551 z m 20.90653,4.29704 c 2.44154,-1.20197 5.61968,-3.20587 7.06253,-4.45312 2.39437,-2.06977 2.56206,-2.44305 1.92114,-4.27643 -0.9227,-2.63939 -4.24632,-3.07235 -7.61286,-0.99171 -2.57808,1.59334 -9.4807,9.62431 -9.4807,11.03048 0,1.52138 3.51166,0.95447 8.10989,-1.30922 z m 165.88166,1.46224 c 0.8321,-0.44532 1.3472,-1.45181 1.3406,-2.61967 -0.017,-2.98613 -0.8802,-3.76413 -3.9026,-3.51665 -2.6164,0.21424 -2.732,0.32976 -2.9462,2.94619 -0.2997,3.66048 2.0676,5.03151 5.5082,3.19013 z m -64.5834,-8.08262 c 0.8547,-3.40531 -0.1959,-17.18184 -1.5925,-20.88375 -1.1617,-3.07904 -1.5809,-3.51854 -3.5383,-3.70938 -3.505,-0.34173 -5.0794,0.87842 -5.0794,3.93647 0,4.05866 1.8612,10.38672 4.9158,16.7134 2.8865,5.97872 4.4848,7.16909 5.2944,3.94326 z m 82.9999,-0.67492 c 1.3029,-1.30288 1.435,-3.87418 0.2595,-5.04971 -1.1756,-1.17553 -3.7469,-1.04341 -5.0497,0.25947 -1.3029,1.30288 -1.435,3.87418 -0.2595,5.04972 1.1755,1.17553 3.7468,1.0434 5.0497,-0.25948 z m -217.90611,-2.24752 c 2.90111,-2.19244 3.52872,-3.06444 3.7044,-5.14691 0.15198,-1.80147 -0.10629,-2.62921 -0.91747,-2.94049 -3.35866,-1.28884 -10.93132,7.03051 -9.09866,9.99583 0.83354,1.34869 2.78098,0.75986 6.31173,-1.90843 z M 836.646,573.87209 c 0.47643,-1.24154 -0.90136,-3.1347 -2.28134,-3.1347 -0.97805,0 -1.35963,2.86272 -0.49661,3.72574 0.8239,0.8239 2.36044,0.49698 2.77795,-0.59104 z m 22.60368,-1.03897 c 0,-1.44627 -1.68533,-1.92779 -2.44502,-0.69858 -0.58474,0.94613 0.20428,2.09573 1.43838,2.09573 0.55365,0 1.00664,-0.62872 1.00664,-1.39715 z m 164.16562,-0.34929 c 0,-0.53097 -0.3144,-1.15969 -0.6986,-1.39715 -0.3978,-0.24584 -0.6986,0.35577 -0.6986,1.39715 0,1.04138 0.3008,1.64299 0.6986,1.39715 0.3842,-0.23746 0.6986,-0.86618 0.6986,-1.39715 z m -169.31348,-2.14455 c 6.25509,-2.34017 10.15399,-4.64587 12.42996,-7.3507 2.04319,-2.4282 1.65967,-3.65995 -1.37689,-4.42207 -3.41802,-0.85787 -16.71404,3.37076 -20.02765,6.36954 -1.75701,1.59006 -1.59721,4.77771 0.30634,6.11102 2.09211,1.46537 3.07386,1.38521 8.66824,-0.70779 z m 269.54388,-0.58548 c 3.5904,-3.80692 8.8341,-11.00322 10.2274,-14.03582 1.8414,-4.00805 1.7072,-6.48749 -0.4033,-7.44913 -2.9308,-1.33536 -4.5518,0.52522 -8.9991,10.32951 -5.8191,12.82855 -6.1098,16.75896 -0.825,11.15544 z m -201.05934,-3.55376 c 4.02399,-1.80478 6.18274,-4.40418 5.48452,-6.60405 -1.14351,-3.60291 -6.00404,-2.14334 -11.64393,3.49656 -4.37527,4.37527 -4.49367,5.84826 -0.41789,5.19888 1.63292,-0.26017 4.59271,-1.20129 6.5773,-2.09139 z m 194.53804,-3.74578 c 2.9613,-2.96133 3.3931,-3.75966 3.3931,-6.27388 0,-2.49248 -0.2361,-2.94005 -1.7516,-3.3204 -1.1097,-0.27854 -2.4103,-0.008 -3.5497,0.73863 -2.0795,1.36254 -5.1606,7.51664 -5.1706,10.32765 -0.011,3.22132 3.0147,2.59204 7.0788,-1.472 z M 1005.01,556.97278 c -0.5636,-1.08986 -1.372,-3.86138 -1.7965,-6.15893 -0.4244,-2.29755 -1.6436,-5.59199 -2.7093,-7.32096 -1.57155,-2.54964 -2.37058,-3.18561 -4.22904,-3.36591 -2.91376,-0.28269 -4.29586,0.86914 -4.29586,3.58017 0,3.56378 2.73979,8.09003 8.2821,13.68248 5.0635,5.10919 5.2764,5.24183 5.5199,3.43942 0.1394,-1.03108 -0.2077,-2.76641 -0.7713,-3.85627 z m -114.27187,-8.08814 c 0.6052,-0.46805 1.64884,-1.69385 2.31921,-2.72399 1.18818,-1.82587 1.17783,-1.89986 -0.41131,-2.94111 -4.94998,-3.24335 -21.10103,-4.70604 -25.53736,-2.31274 -1.88392,1.01633 -2.27038,1.63376 -2.27038,3.62731 0,3.54338 1.62895,4.1247 11.19105,3.9938 4.42611,-0.0606 8.98432,0.16933 10.12937,0.51095 2.83299,0.84521 3.30782,0.82922 4.57942,-0.15422 z m 97.04971,-0.41479 c 0,-1.79899 -3.09522,-8.64488 -5.72438,-12.66096 -2.83644,-4.33271 -5.39988,-5.90144 -7.83239,-4.79312 -5.13638,2.3403 -1.44368,9.46397 8.5969,16.58448 3.51623,2.49362 4.95987,2.74672 4.95987,0.8696 z m 137.48246,-5.5009 c 2.4051,-3.40946 4.8452,-8.82921 5.3573,-11.89879 0.649,-3.89058 -0.8506,-6.43885 -3.7891,-6.43885 -3.4663,0 -3.9663,1.18708 -4.4362,10.53213 -0.2366,4.70575 -0.2674,8.81932 -0.068,9.14126 0.6431,1.04057 1.5517,0.62725 2.9364,-1.33575 z m 10.667,-1.99545 c 3.1419,-4.56653 7.0279,-14.59656 7.4527,-19.23594 0.332,-3.62532 0.2211,-4.03321 -1.3814,-5.08324 -2.612,-1.71141 -5.157,-0.50189 -6.0636,2.88164 -1.1191,4.17703 -2.6598,11.94417 -3.5378,17.83583 -1.1615,7.79422 -0.1,8.87753 3.5301,3.60171 z m -216.03485,-0.79885 c -0.13564,-0.73417 -2.63512,-2.43735 -6.25711,-4.2637 -5.32939,-2.68728 -6.73002,-3.08478 -12.03596,-3.4158 -6.9042,-0.43075 -8.12943,0.13046 -8.12943,3.72364 0,1.6425 0.42668,2.56326 1.43887,3.10496 2.07334,1.10962 8.94919,1.8829 17.64857,1.98483 6.84796,0.0802 7.53963,-0.0267 7.33506,-1.13393 z m 47.62666,-1.22707 c 0,-1.48089 -7.98191,-9.17835 -12.57439,-12.12627 -2.89264,-1.8568 -4.61906,-2.47532 -6.98577,-2.5028 l -3.14359,-0.0365 v 3.45966 c 0,3.24442 0.17385,3.58142 2.79431,5.41649 7.21407,5.05196 19.90944,8.7436 19.90944,5.78941 z m -24.4502,-2.00912 c 0,-2.5971 -17.53085,-11.60858 -22.58322,-11.60858 -3.36582,0 -3.9627,0.63243 -3.9627,4.1987 0,2.47519 1.23441,3.74266 5.05193,5.1872 7.55109,2.85731 21.49399,4.29914 21.49399,2.22268 z m 205.25059,-1.3147 c 0.278,-1.44367 -1.7386,-2.41645 -2.803,-1.35209 -1.0643,1.06436 -0.092,3.08101 1.3521,2.80298 0.6691,-0.12886 1.322,-0.78176 1.4509,-1.45089 z m -257.11993,-3.48275 c -0.16009,-0.48027 -0.8674,-0.87322 -1.57179,-0.87322 -0.7044,0 -1.41171,0.39295 -1.5718,0.87322 -0.18435,0.55304 0.39198,0.87322 1.5718,0.87322 1.17982,0 1.75614,-0.32018 1.57179,-0.87322 z m 243.67103,-18.81435 c 0.6417,-1.93202 1.1668,-5.11504 1.1668,-7.07338 0,-2.9925 -0.2978,-3.8167 -1.866,-5.16567 -1.0263,-0.88279 -2.1629,-1.60507 -2.5257,-1.60507 -1.5312,0 -3.4539,2.89745 -3.4539,5.20494 0,3.244 1.336,9.36201 2.5735,11.78498 1.3095,2.56392 2.5159,1.63945 4.1053,-3.1458 z m 11.4808,-3.54432 c 1.4915,-3.37178 2.7846,-10.46361 2.7924,-15.31459 0.01,-3.83342 -1.263,-5.46387 -4.2533,-5.46387 -3.0951,0 -3.6606,2.21432 -3.1207,12.21996 0.2486,4.60778 0.6301,9.08741 0.8478,9.95472 0.6221,2.47845 2.2969,1.85216 3.7338,-1.39622 z m -7.273,-16.30452 c 0.6892,-3.67405 -0.048,-10.83381 -1.3818,-13.41236 -0.9044,-1.74895 -1.607,-2.23881 -3.211,-2.23881 -4.1536,0 -4.1662,4.56042 -0.038,13.66549 2.3339,5.14729 3.9106,5.8234 4.6306,1.98568 z m -12.0092,-0.6889 c 0.678,-1.76674 0.49,-7.24649 -0.2991,-8.721 -0.7579,-1.41607 -3.1286,-1.76607 -4.799,-0.7085 -1.175,0.74389 -1.1883,4.22623 -0.025,6.47399 1.9719,3.8091 4.2835,5.14273 5.1228,2.95551 z m -105.2354,-10.59616 c 0.1705,-0.51219 -0.311,-0.87322 -1.1646,-0.87322 -0.8581,0 -1.4554,0.45106 -1.4554,1.09908 0,1.2839 2.1799,1.09598 2.62,-0.22586 z m 125.2157,-6.77 c -0.01,-5.55574 -1.0319,-9.04541 -3.4615,-11.76459 -1.7678,-1.9786 -2.1971,-2.14295 -3.9737,-1.52159 -1.7025,0.59547 -2.0226,1.12025 -2.2047,3.61484 -0.2386,3.27038 1.887,8.43976 5.5494,13.49554 2.0528,2.83385 2.2444,2.93836 3.1403,1.71318 0.5592,-0.76473 0.9525,-3.05672 0.9502,-5.53738 z m 7.2891,5.49759 c 1.6468,-1.64682 1.3934,-3.23287 -0.4741,-2.96764 -1.1254,0.15983 -1.6346,0.76881 -1.7928,2.14432 -0.2476,2.15201 0.6222,2.46795 2.2669,0.82332 z m -22.762,-11.06369 c 1.1588,-2.37825 0.5873,-5.90248 -1.3581,-8.3757 -1.6358,-2.07951 -3.1442,-2.28474 -5.3641,-0.72984 -2.7242,1.90808 -1.5182,6.96978 2.3937,10.04691 2.2611,1.77856 3.0913,1.59801 4.3285,-0.94137 z m -99.2181,-18.10588 c 0.1506,-1.27193 -0.104,-1.86721 -0.7985,-1.86721 -1.2296,0 -1.98,1.68834 -1.4103,3.17312 0.6186,1.61187 1.9571,0.82049 2.2088,-1.30591 z m 99.3262,1.05389 c 0,-7.78027 -9.5524,-18.7438 -10.3459,-11.87434 -0.2835,2.45402 1.1295,5.08081 5.1216,9.52095 3.3567,3.73353 5.2243,4.57481 5.2243,2.35339 z m -10.6211,-2.32938 c 0.2982,-1.57414 -3.5051,-5.76305 -6.5404,-7.20337 -2.2829,-1.0833 -2.6202,-1.08825 -4.1872,-0.0615 -2.2446,1.4707 -2.1511,2.90096 0.3419,5.22974 3.4803,3.25108 9.9164,4.51225 10.3857,2.03511 z m -52.2242,-19.84108 c 2.8963,-0.54555 7.5881,-1.78174 10.4264,-2.74708 2.8382,-0.96535 5.7571,-1.75518 6.4864,-1.75518 2.3175,0 1.0457,-2.16643 -1.92,-3.27056 -6.193,-2.30564 -8.6569,-2.61535 -13.796,-1.73411 -5.2054,0.89263 -10.4585,2.89779 -12.5498,4.79034 -1.8244,1.65106 -1.6359,5.00047 0.3238,5.7529 1.6604,0.6375 2.6236,0.547 11.0292,-1.03631 z M 902.91074,412.55056 c 9.15278,-1.49685 28.72917,-3.66093 44.35964,-4.90374 7.49223,-0.59573 17.70892,-1.40714 22.70375,-1.80314 16.68602,-1.3229 29.77445,-4.04221 33.29237,-6.91697 1.3512,-1.10408 1.4768,-1.49814 0.7209,-2.26005 -3.5337,-3.56161 -65.64737,3.93704 -100.12274,12.08728 -4.85439,1.14761 -9.38204,2.49304 -10.06145,2.98984 -1.58004,1.15535 -0.70931,2.62276 1.29135,2.17625 0.84094,-0.18769 4.35822,-0.80395 7.81618,-1.36947 z m 18.163,-13.97227 c 19.83725,-2.02341 30.55649,-2.80089 58.68047,-4.25619 11.52652,-0.59645 21.64189,-1.25624 22.47859,-1.46619 1.741,-0.4369 2.5335,-1.97815 1.9547,-3.80167 -0.5157,-1.62483 -3.9213,-2.70274 -20.59112,-6.51722 -18.90249,-4.32538 -23.21418,-4.82772 -41.56533,-4.84258 -23.00609,-0.0186 -31.35564,1.65462 -47.23649,9.46625 -4.6205,2.27278 -7.52606,4.11194 -7.55491,4.78212 -0.0258,0.59894 -0.50844,1.6992 -1.07254,2.44502 -0.5641,0.74581 -1.03564,1.78562 -1.04787,2.31069 -0.0264,1.13267 1.13128,0.91635 8.01142,-1.49709 10.88477,-3.81818 29.81138,-6.03687 54.83829,-6.42846 l 18.51229,-0.28967 -17.85678,0.93639 c -20.77124,1.08923 -24.34051,1.57388 -39.3998,5.34984 -10.99848,2.75775 -14.34756,4.07228 -14.34756,5.63149 0,0.86298 -0.42082,0.89226 26.19664,-1.82273 z m 151.04116,-27.38004 c 0.6199,-1.86195 -29.2128,-21.9161 -51.9089,-34.89423 -19.5083,-11.15527 -32.84187,-17.89319 -34.84189,-17.60677 -2.59042,0.37098 -1.46896,2.00085 2.48148,3.60643 8.07646,3.28252 19.50651,10.49898 36.28431,22.90852 12.546,9.27945 21.0342,14.58355 33.8126,21.12866 11.3689,5.82318 13.5967,6.58673 14.1724,4.85739 z m 7.7536,-5.65231 c 0.4641,-4.80651 -9.0033,-20.47777 -17.4261,-28.8451 -15.3721,-15.27082 -42.8149,-30.43261 -64.87448,-35.8422 -5.92616,-1.45325 -15.424,-2.60369 -17.34604,-2.10106 -3.43352,0.89788 -1.786,1.93036 9.90999,6.21044 7.94801,2.90852 15.40043,7.06605 32.79373,18.29474 12.6357,8.15733 16.5323,11.57754 5.947,5.21997 -7.5833,-4.55459 -13.7309,-7.60213 -24.3188,-12.05569 -20.00945,-8.41643 -24.89824,-8.81729 -11.30939,-0.92733 20.67749,12.00577 29.27969,17.39568 51.47749,32.25441 28.2747,18.92648 30.8243,20.48105 33.1824,20.23149 1.4096,-0.14918 1.7884,-0.61971 1.9642,-2.43967 z"
       id="path52"
       inkscape:label="rabbit"
       transform="translate(-58.68047,-16.765847)" /><g
       id="g1"
       inkscape:label="letters"
       style="display:inline"
       transform="translate(-58.68047,-16.765847)"><path
         style="fill:#000000;fill-opacity:1;stroke:#000000;stroke-width:0;stroke-linecap:round;stroke-linejoin:round;stroke-dasharray:none;stroke-opacity:0.968958"
         d="m 676.16636,504.01392 c -6.37047,-3.19987 -22.24563,-10.913 -35.27814,-17.14028 -13.0325,-6.22727 -23.88766,-11.51768 -24.12258,-11.75645 -0.53123,-0.53997 0.61401,-12.80213 1.51714,-16.24392 0.46936,-1.78874 1.23081,-2.76045 2.58213,-3.29514 2.15494,-0.85268 73.34774,-16.17321 75.15508,-16.17321 0.63791,0 1.15983,0.4587 1.15983,1.01933 0,2.81512 -1.65962,11.6352 -2.35205,12.49999 -0.43535,0.54373 -4.53725,1.81057 -9.11533,2.81521 -4.57808,1.00464 -8.39882,1.90563 -8.49053,2.00219 -0.28953,0.30484 -3.09611,26.0159 -3.0743,28.16356 0.0196,1.93363 0.46241,2.24673 7.74856,5.47927 4.25026,1.88565 7.88226,3.83113 8.07112,4.32329 0.45561,1.18731 -1.00276,12.97638 -1.68494,13.62053 -0.29332,0.27698 -5.74552,-2.11449 -12.11599,-5.31437 z m -13.32665,-30.22533 c 0.41411,-2.966 0.93342,-7.04312 1.15402,-9.06026 l 0.40109,-3.66753 h -2.7223 c -5.70484,0 -28.95737,5.3346 -28.56636,6.5537 0.27595,0.86037 18.35295,10.13233 23.90548,12.26147 4.39998,1.68719 4.80108,1.26825 5.82807,-6.08738 z"
         id="path53" /><path
         style="fill:#000000;fill-opacity:1;stroke:#000000;stroke-width:0;stroke-linecap:round;stroke-linejoin:round;stroke-dasharray:none;stroke-opacity:0.968958"
         d="m 676.52782,432.43962 c -10.93555,-2.31781 -22.1567,-10.21721 -25.61309,-18.03096 -2.08865,-4.72173 -1.55568,-14.01388 1.05977,-18.47681 2.40443,-4.10285 7.9049,-9.61878 9.59182,-9.61878 2.01691,0 2.29617,-1.2286 0.53227,-2.34165 -0.87674,-0.55323 -5.36638,-2.42894 -9.97698,-4.16824 -11.00144,-4.15017 -14.76832,-5.79164 -15.31293,-6.67284 -0.24609,-0.39819 0.52284,-3.23999 1.70873,-6.31513 l 2.15618,-5.59115 7.81974,2.75584 c 4.30085,1.51571 21.18002,7.59553 37.50926,13.51072 33.88027,12.27296 31.16677,10.4134 27.38053,18.76377 l -2.07726,4.58129 -3.91942,-0.9111 c -2.15569,-0.50111 -3.91943,-0.68617 -3.91943,-0.41126 0,0.27492 0.7859,1.56507 1.74645,2.86702 1.58433,2.14743 1.74644,3.0056 1.74644,9.24505 0,7.70244 -0.91271,10.3241 -5.27542,15.1531 -3.63475,4.02323 -8.45894,5.85174 -16.03118,6.07628 -3.45796,0.10253 -7.56442,-0.0843 -9.12548,-0.41515 z m 14.22485,-14.27493 c 6.40816,-3.33416 9.046,-12.00417 5.53711,-18.19925 -4.2736,-7.5452 -19.68164,-12.52294 -27.08009,-8.74853 -6.99513,3.56864 -9.03175,13.54915 -4.05572,19.87514 4.20902,5.35092 20.34128,9.80808 25.5987,7.07264 z"
         id="path54" /><path
         style="fill:#000000;fill-opacity:1;stroke:#000000;stroke-width:0;stroke-linecap:round;stroke-linejoin:round;stroke-dasharray:none;stroke-opacity:0.968958"
         d="m 703.1086,371.81669 c -8.49748,-3.01883 -17.7637,-10.72864 -21.1281,-17.57931 -1.67658,-3.41389 -1.90928,-4.68614 -1.86349,-10.18822 0.0618,-7.42325 1.66887,-12.28751 5.93585,-17.96632 6.33096,-8.42571 12.40417,-11.34929 22.64562,-10.90136 5.81907,0.2545 7.04738,0.56116 11.97813,2.99047 3.84045,1.89213 6.88247,4.09127 10.10661,7.30628 5.30707,5.29204 7.13897,8.48707 8.32623,14.52176 0.71553,3.637 0.66753,5.10094 -0.31161,9.50195 -2.08133,9.35521 -7.8846,17.07574 -15.75305,20.95748 -3.84945,1.89905 -5.41016,2.25895 -10.47866,2.4164 -4.32051,0.13421 -6.91695,-0.15656 -9.45753,-1.05913 z m 17.16964,-13.63168 c 5.67866,-3.82685 8.11966,-10.49713 5.93493,-16.21777 -2.23367,-5.84877 -12.9328,-13.3315 -20.23954,-14.15507 -6.53218,-0.73627 -13.00099,5.52293 -13.54985,13.11079 -0.34304,4.74251 0.86829,7.28255 5.44479,11.41714 7.3095,6.60369 17.3844,9.23144 22.40967,5.84491 z"
         id="path55" /><path
         style="fill:#000000;fill-opacity:1;stroke:#000000;stroke-width:0;stroke-linecap:round;stroke-linejoin:round;stroke-dasharray:none;stroke-opacity:0.968958"
         d="m 740.5001,318.9089 -28.27739,-28.28385 4.50883,-4.54927 c 2.47985,-2.50209 4.81506,-4.54926 5.18936,-4.54926 0.37429,0 1.53667,0.82024 2.58307,1.82275 1.0464,1.00252 2.19874,1.63971 2.56074,1.41597 0.36201,-0.22373 0.81732,-2.38924 1.01182,-4.81225 0.44576,-5.55321 2.24403,-9.09196 6.77295,-13.32824 6.32326,-5.91466 11.87341,-7.26733 20.54794,-5.0079 5.38498,1.4026 10.27295,4.68604 16.23787,10.90759 7.90266,8.24267 11.33923,15.86826 10.55883,23.42959 -1.03733,10.05073 -11.48793,19.80276 -21.2213,19.80276 -1.3099,0 -2.31823,0.35701 -2.31823,0.8208 0,0.45145 4.5559,5.41334 10.12422,11.02644 l 10.12421,10.20563 -4.72777,4.69155 c -2.60028,2.58035 -4.87852,4.69155 -5.06277,4.69155 -0.18424,0 -13.05981,-12.72774 -28.61238,-28.28386 z m 22.36565,-13.21158 c 8.06382,-5.33639 6.85279,-16.22839 -2.78436,-25.04249 -6.40403,-5.8571 -11.68281,-7.39339 -17.31629,-5.03957 -3.46415,1.44741 -5.02204,2.93685 -6.54829,6.26055 -2.74083,5.9687 -1.19766,11.34849 5.25428,18.31735 7.37275,7.96345 14.79353,9.87258 21.39466,5.50416 z"
         id="path56" /><path
         style="fill:#000000;fill-opacity:1;stroke:#000000;stroke-width:0;stroke-linecap:round;stroke-linejoin:round;stroke-dasharray:none;stroke-opacity:0.968958"
         d="m 801.96637,280.89507 c -6.71141,-2.13271 -9.17777,-4.49633 -19.05,-18.25644 -3.711,-5.17246 -7.49766,-10.32625 -8.41479,-11.45287 l -1.66752,-2.04839 -3.19731,1.87374 c -1.75852,1.03057 -3.45569,1.86565 -3.77149,1.85574 -0.85412,-0.0268 -5.11494,-6.54162 -5.11494,-7.82077 0,-0.60759 1.10776,-1.7583 2.46168,-2.55713 3.65541,-2.15675 3.69971,-3.15345 0.35122,-7.90161 l -2.96945,-4.21067 4.4242,-4.46389 c 2.43331,-2.45513 4.64036,-4.46388 4.90455,-4.46388 0.26419,0 2.08614,2.04334 4.04879,4.54075 2.29729,2.92326 4.07316,4.54075 4.98535,4.54075 0.7793,0 3.81204,-1.61621 6.73942,-3.59159 6.04173,-4.07692 6.19904,-4.06066 9.85466,1.01825 l 2.31659,3.21854 -5.80947,4.26932 c -3.19521,2.34813 -6.25239,4.52252 -6.79372,4.83199 -0.76021,0.43459 0.64449,2.87461 6.17116,10.7195 10.23494,14.52813 11.4628,15.85999 14.62153,15.85999 2.75089,0 4.66572,-1.02054 8.29666,-4.42184 l 2.25775,-2.11496 3.8548,2.65489 c 2.16282,1.48959 3.85479,3.18481 3.85479,3.86217 0,0.664 -0.88842,2.43329 -1.97427,3.93175 -4.73024,6.52769 -15.25254,11.75609 -20.38019,10.12666 z"
         id="path57" /><path
         style="fill:#000000;fill-opacity:1;stroke:#000000;stroke-width:0;stroke-linecap:round;stroke-linejoin:round;stroke-dasharray:none;stroke-opacity:0.968958"
         d="m 820.28675,240.17858 c -6.3824,-10.49603 -22.51185,-40.36453 -22.51185,-41.68743 0,-0.351 2.50185,-1.93978 5.55967,-3.53063 l 5.55966,-2.89246 3.19275,5.43428 c 4.58864,7.81018 19.21962,36.90708 19.21962,38.22241 0,0.96726 -5.93215,5.35435 -8.65061,6.39752 -0.57951,0.22238 -1.52254,-0.55126 -2.36924,-1.94369 z"
         id="path58" /><path
         style="fill:#000000;fill-opacity:1;stroke:#000000;stroke-width:0;stroke-linecap:round;stroke-linejoin:round;stroke-dasharray:none;stroke-opacity:0.968958"
         d="m 830.82062,262.73169 c -1.22783,-0.76846 -2.75628,-2.19672 -3.39656,-3.17391 -2.42076,-3.69455 0.82676,-10.10206 5.88869,-11.61865 4.94465,-1.48145 10.14909,2.30852 10.14909,7.39075 0,6.15425 -7.56094,10.58141 -12.64122,7.40181 z"
         id="path59" /><path
         style="fill:#000000;fill-opacity:1;stroke:#000000;stroke-width:0;stroke-linecap:round;stroke-linejoin:round;stroke-dasharray:none;stroke-opacity:0.968958"
         d="m 877.08276,242.15669 c -0.52943,-0.82331 -3.47225,-12.65669 -6.53961,-26.29641 -8.88701,-39.51802 -10.10178,-45.48147 -9.40637,-46.17688 0.9,-0.9 13.90119,-3.77129 27.03244,-5.97009 9.76671,-1.6354 11.6974,-1.76807 16.01193,-1.10024 10.53528,1.63071 19.65322,8.36198 24.15259,17.83054 3.60725,7.59115 4.53438,12.35959 4.57711,23.54087 0.0369,9.65475 -0.0522,10.32347 -1.90135,14.27202 -4.0293,8.6039 -10.91878,14.36143 -20.99308,17.5439 -6.98508,2.20659 -20.63108,5.69247 -27.13624,6.93197 -4.68009,0.89175 -4.86565,0.87332 -5.79742,-0.57568 z m 20.93794,-15.29788 c 11.35635,-2.93218 15.91437,-5.94295 19.24772,-12.71395 2.13653,-4.33992 2.23718,-4.88779 1.81509,-9.88106 -0.90012,-10.64837 -4.73412,-20.65723 -9.59531,-25.04902 -2.93072,-2.64773 -8.3637,-4.57054 -12.91428,-4.57054 -3.6861,0 -13.85144,1.90159 -16.83959,3.15012 -2.73867,1.1443 -2.87025,-0.14493 2.35215,23.04652 2.07649,9.22122 4.23271,19.07603 4.7916,21.8996 0.55889,2.82356 1.19196,5.41818 1.40681,5.76582 0.42219,0.68311 1.25557,0.54209 9.73581,-1.64749 z"
         id="path60" /><path
         style="fill:#000000;fill-opacity:1;stroke:#000000;stroke-width:0;stroke-linecap:round;stroke-linejoin:round;stroke-dasharray:none;stroke-opacity:0.968958"
         d="m 963.28829,230.31625 c -6.75508,-1.91124 -12.74708,-6.80573 -16.1623,-13.20198 -1.48987,-2.79031 -1.60206,-3.83207 -1.60206,-14.87624 0,-13.98892 0.64683,-16.10663 6.79848,-22.25828 5.57784,-5.57784 9.82645,-7.04617 20.44603,-7.06616 7.61579,-0.0143 8.74219,0.15267 12.30893,1.82508 5.45132,2.55607 9.12647,6.11342 11.62028,11.24781 8.04175,16.55689 2.67222,36.46554 -11.59702,42.99822 -3.28596,1.50436 -5.16282,1.84041 -11.28059,2.01978 -4.54403,0.13322 -8.55474,-0.12887 -10.53175,-0.68823 z m 15.17635,-11.61282 c 8.09933,-3.67759 10.56404,-20.64776 4.32191,-29.75755 -3.30211,-4.81911 -9.97208,-6.5716 -15.77824,-4.14563 -5.38858,2.25149 -7.01355,5.03878 -7.89293,13.53861 -0.80629,7.79329 0.0439,13.3473 2.54531,16.62675 3.62818,4.75679 10.96542,6.38886 16.80395,3.73782 z"
         id="path61" /><path
         style="fill:#000000;fill-opacity:1;stroke:#000000;stroke-width:0;stroke-linecap:round;stroke-linejoin:round;stroke-dasharray:none;stroke-opacity:0.968958"
         d="m 1047.0266,242.01355 c -1.8061,-0.5647 -3.4706,-1.32892 -3.6989,-1.69824 -0.2283,-0.36933 1.3537,-8.30191 3.5156,-17.62795 4.4109,-19.02864 4.9297,-23.97693 2.7686,-26.40649 -3.0625,-3.44297 -10.6919,-4.5982 -15.4515,-2.33963 -4.6571,2.20991 -6.3023,6.05344 -11.1766,26.11051 -4.0171,16.52924 -3.6679,15.48212 -5.0388,15.11353 -8.2966,-2.23066 -11.2956,-3.39226 -11.2956,-4.37515 0,-2.1894 11.3634,-50.25952 12.3229,-52.12907 0.5423,-1.0566 1.3062,-1.92109 1.6977,-1.92109 1.2477,0 10.0619,2.27106 10.5406,2.71589 0.2532,0.23524 0.1637,2.2768 -0.1988,4.5368 -0.3625,2.26 -0.5061,4.26211 -0.319,4.44913 0.187,0.18703 1.6101,-0.7471 3.1624,-2.07584 3.2816,-2.80888 6.8398,-4.03736 11.6941,-4.03736 7.7593,0 15.0816,3.9316 18.2146,9.78008 2.4403,4.55531 1.9123,10.72151 -2.5723,30.03881 -4.3903,18.91153 -5.058,20.55367 -8.4361,20.75041 -1.3448,0.0783 -3.9228,-0.31963 -5.7289,-0.88434 z"
         id="path62" /><path
         style="fill:#000000;fill-opacity:1;stroke:#000000;stroke-width:0;stroke-linecap:round;stroke-linejoin:round;stroke-dasharray:none;stroke-opacity:0.968958"
         d="m 1086.5198,208.31155 c -1.601,-0.65091 -3.0899,-1.36251 -3.3086,-1.58132 -0.4586,-0.45894 5.8694,-21.25677 7.9312,-26.06678 0.7603,-1.77369 1.6753,-3.2249 2.0334,-3.2249 0.8158,0 10.5652,3.94798 11.1204,4.50315 0.6624,0.6624 -12.9985,27.63514 -13.9747,27.59236 -0.4899,-0.0215 -2.2006,-0.5716 -3.8017,-1.22251 z"
         id="path63" /><path
         style="fill:#000000;fill-opacity:1;stroke:#000000;stroke-width:0;stroke-linecap:round;stroke-linejoin:round;stroke-dasharray:none;stroke-opacity:0.968958"
         d="m 1112.4088,270.76164 c -7.1241,-1.72913 -14.6426,-7.14975 -16.7706,-12.09108 -2.4544,-5.69922 -1.022,-10.76687 8.0263,-28.39603 3.5059,-6.8306 6.3743,-12.70457 6.3743,-13.05327 0,-0.3487 -1.2727,-1.28331 -2.8283,-2.07692 -1.5556,-0.7936 -3.0024,-1.89642 -3.2151,-2.45072 -0.2914,-0.75934 2.9353,-7.70208 4.3125,-9.2789 0.1059,-0.12125 1.9028,0.74473 3.993,1.9244 l 3.8005,2.14487 2.0334,-3.95117 c 2.8544,-5.54665 3.3488,-5.73719 9.71,-3.74224 2.9333,0.91995 5.4989,1.94052 5.7013,2.26793 0.2023,0.32741 -0.7602,2.97066 -2.1389,5.87389 -1.3788,2.90322 -2.5068,5.64656 -2.5068,6.09629 0,0.44974 2.9864,2.3012 6.6365,4.11437 3.65,1.81316 6.6365,3.63375 6.6365,4.04575 0,0.86861 -0.9501,2.73819 -3.2635,6.422 l -1.646,2.62116 -7.0441,-3.53488 c -6.6465,-3.33538 -7.0979,-3.4636 -7.9989,-2.27187 -1.866,2.46824 -11.0294,20.00175 -12.4051,23.7364 -1.3112,3.55932 -1.3282,3.94274 -0.2737,6.15413 0.9122,1.91297 1.9269,2.65085 5.3729,3.90732 2.3365,0.85195 4.401,1.79622 4.5878,2.09839 0.648,1.04846 -0.5925,8.43945 -1.5826,9.42957 -1.1432,1.1432 -0.8474,1.14262 -5.5114,0.0106 z"
         id="path64" /><path
         style="fill:#000000;fill-opacity:1;stroke:#000000;stroke-width:0;stroke-linecap:round;stroke-linejoin:round;stroke-dasharray:none;stroke-opacity:0.968958"
         d="m 1161.6031,308.12406 c -5.0788,-1.98586 -7.7767,-3.9057 -12.3325,-8.77584 -5.167,-5.52355 -8.4714,-12.08934 -8.6884,-17.26365 l -0.1553,-3.70165 5.2393,-0.42821 c 2.8817,-0.23551 5.5888,-0.15453 6.0159,0.17995 0.4271,0.33449 0.9604,2.16067 1.1852,4.05818 0.5219,4.40731 1.9441,7.11841 5.7087,10.88305 5.1281,5.12808 10.8565,5.54384 12.0972,0.87798 0.8564,-3.22069 0.1376,-5.1941 -4.7205,-12.95845 -5.5245,-8.82942 -6.8969,-13.01656 -5.7317,-17.48697 2.0267,-7.77546 7.4816,-12.02568 15.4193,-12.01392 6.2256,0.009 10.7246,2.18342 16.9684,8.20017 5.2095,5.02007 7.7732,9.18796 8.5624,13.92015 0.5652,3.38913 -0.062,3.95024 -5.2607,4.7034 -4.1858,0.60647 -5.3086,0.0947 -5.8244,-2.65468 -1.0233,-5.45461 -8.1434,-12.99863 -12.2683,-12.99863 -2.4658,0 -4.907,2.66273 -4.907,5.3524 0,1.37302 1.3858,4.3077 3.9372,8.3379 2.1655,3.42053 4.5403,7.21727 5.2775,8.43721 0.7371,1.21994 1.6629,4.29034 2.0572,6.82313 0.6467,4.1537 0.5687,4.91125 -0.7952,7.72879 -4.0426,8.35088 -13.3193,12.08963 -21.7843,8.77969 z"
         id="path65" /><path
         style="fill:#000000;fill-opacity:1;stroke:#000000;stroke-width:0;stroke-linecap:round;stroke-linejoin:round;stroke-dasharray:none;stroke-opacity:0.968958"
         d="m 1200.2185,356.14865 c -1.9559,-2.41721 -3.5561,-4.72862 -3.5561,-5.13648 0,-1.18697 4.5113,-5.12509 15.4636,-13.4989 5.6234,-4.29946 11.6748,-9.16794 13.4476,-10.81884 2.9933,-2.78745 3.2233,-3.2483 3.2233,-6.45819 0,-9.17582 -10.142,-14.30268 -19.2484,-9.73019 -1.9004,0.95426 -7.6992,4.90835 -12.8861,8.78686 -5.187,3.8785 -10.8188,8.02115 -12.5152,9.20587 l -3.0843,2.15405 -1.6723,-2.03405 c -0.9198,-1.11872 -2.6264,-3.39118 -3.7926,-5.0499 -2.0398,-2.90127 -2.0735,-3.06758 -0.8879,-4.37762 1.1054,-1.22156 54.7504,-42.18456 60.1291,-45.9143 l 2.2002,-1.52564 2.191,2.49544 c 1.2051,1.37249 3.0394,3.77739 4.0762,5.3442 l 1.8853,2.84877 -1.9644,1.46448 c -9.5132,7.09235 -21.0305,16.29188 -21.2438,16.96873 -0.1547,0.49086 0.9775,1.1436 2.7512,1.58614 7.1582,1.78594 13.0676,5.99463 16.3992,11.6795 1.5808,2.69755 1.7533,3.6537 1.5331,8.50109 -0.3116,6.86095 -1.9407,9.44736 -10.3774,16.47598 -5.6473,4.70475 -22.6969,17.63509 -26.6574,20.21681 l -1.8579,1.21111 z"
         id="path66" /><path
         style="fill:#000000;fill-opacity:1;stroke:#000000;stroke-width:0;stroke-linecap:round;stroke-linejoin:round;stroke-dasharray:none;stroke-opacity:0.968958"
         d="m 1233.0236,406.46444 c -3.6627,-1.15929 -5.2307,-2.16728 -8.3829,-5.3889 -6.416,-6.55731 -11.1558,-18.25423 -10.1962,-25.16233 1.8793,-13.52971 18.0768,-26.13166 33.4359,-26.01378 9.9978,0.0767 18.4419,6.06455 23.7464,16.83879 2.1163,4.29845 2.228,4.93081 2.222,12.57439 -0.01,6.98855 -0.2097,8.41626 -1.5507,10.84263 -5.5065,9.96278 -19.2908,17.89217 -30.8989,17.77448 -2.1286,-0.0216 -5.8975,-0.68096 -8.3756,-1.46528 z m 15.8359,-14.42206 c 5.3525,-2.03657 10.624,-6.16918 12.1471,-9.52281 2.4758,-5.45084 1.092,-11.77552 -3.5258,-16.11595 -2.1242,-1.99654 -2.5168,-2.09573 -8.2964,-2.09573 -5.3368,0 -6.6169,0.26075 -10.6405,2.16743 -5.1342,2.43299 -9.3185,5.80555 -10.8306,8.72952 -2.495,4.82483 0.2845,13.93596 5.2751,17.2915 2.1576,1.45077 3.0197,1.60222 7.335,1.28865 2.6895,-0.19543 6.5308,-0.97961 8.5361,-1.74261 z"
         id="path67" /><path
         style="fill:#000000;fill-opacity:1;stroke:#000000;stroke-width:0;stroke-linecap:round;stroke-linejoin:round;stroke-dasharray:none;stroke-opacity:0.968958"
         d="m 1254.805,470.49757 c -5.2753,-1.47926 -7.6044,-2.84232 -11.4814,-6.71932 -4.2353,-4.23535 -5.1584,-6.41744 -5.7869,-13.68069 -0.4549,-5.25673 -0.3471,-6.0476 1.3203,-9.68985 0.9987,-2.18126 1.8157,-4.3559 1.8157,-4.83251 0,-1.029 -0.2117,-0.99838 -14.8943,2.15479 -6.0786,1.30543 -11.6497,2.3735 -12.3802,2.3735 -1.3461,0 -2.7365,-3.58047 -3.8478,-9.90916 -0.449,-2.55685 -0.4317,-2.57961 2.5861,-3.39476 13.1042,-3.5397 67.866,-15.28766 72.3369,-15.51835 l 3.2691,-0.16867 1.2219,3.84217 c 0.6721,2.1132 1.2411,4.85932 1.2646,6.10249 0.04,2.10655 -0.1712,2.31417 -3.1009,3.05189 -3.7574,0.94612 -3.9732,2.09475 -0.7661,4.07686 5.7208,3.53563 10.1969,11.32946 10.1969,17.75485 0,7.63564 -4.9547,15.44615 -12.3527,19.47264 -8.3445,4.54162 -22.5659,7.00082 -29.4012,5.08412 z m 17.9027,-15.60873 c 9.8163,-3.76437 13.1016,-9.43757 10.2105,-17.63179 -0.5864,-1.66215 -1.6081,-3.63223 -2.2704,-4.37795 -4.8198,-5.42725 -18.0786,-5.21428 -26.9704,0.43321 -5.4012,3.43043 -7.2483,9.11003 -5.0068,15.39499 1.2342,3.46064 2.8809,5.25659 6.3229,6.89586 3.6211,1.72455 12.2632,1.37606 17.7142,-0.71432 z"
         id="path68" /><path
         style="fill:#000000;fill-opacity:1;stroke:#000000;stroke-width:0;stroke-linecap:round;stroke-linejoin:round;stroke-dasharray:none;stroke-opacity:0.968958"
         d="m 1245.8422,497.80595 c -1.938,-1.938 -2.3752,-2.90871 -2.3752,-5.27402 0,-5.31875 3.1349,-9.11666 7.5252,-9.11666 3.3728,0 6.0848,1.66931 7.4765,4.60204 1.7373,3.66116 1.0376,7.04857 -2.0435,9.89343 -3.5056,3.23669 -7.2789,3.19932 -10.583,-0.10479 z"
         id="path69" /><path
         style="fill:#000000;fill-opacity:1;stroke:#000000;stroke-width:0;stroke-linecap:round;stroke-linejoin:round;stroke-dasharray:none;stroke-opacity:0.968958"
         d="m 1269.3144,490.76363 c 0,-5.58068 0.091,-5.94372 1.5718,-6.25408 0.8644,-0.18123 11.9054,-1.00811 24.5355,-1.83753 18.7348,-1.23032 23.0672,-1.34072 23.5253,-0.59946 0.6217,1.00595 1.7116,12.40471 1.2319,12.88438 -0.3737,0.37373 -34.7417,1.72099 -44.0534,1.72694 l -6.8111,0.004 z"
         id="path70" /><path
         style="fill:#000000;fill-opacity:1;stroke:#000000;stroke-width:0;stroke-linecap:round;stroke-linejoin:round;stroke-dasharray:none;stroke-opacity:0.968958"
         d="m 636.07227,642.72551 c -2.129,-4.11704 -1.78377,-4.4813 7.27422,-7.67528 4.58701,-1.61744 8.67242,-3.34132 9.07868,-3.83084 0.53434,-0.64384 0.0715,-2.99674 -1.67321,-8.5062 -3.57633,-11.29329 -2.81327,-10.79467 -12.40932,-8.10876 -4.39974,1.23147 -8.49606,2.23904 -9.10295,2.23904 -1.12913,0 -3.88337,-5.9514 -3.11146,-6.72331 0.33944,-0.33944 16.63934,-5.40952 36.30752,-11.29344 5.39538,-1.61408 5.65848,-1.46058 6.48424,3.78307 l 0.42632,2.70716 -7.39206,1.99138 c -4.06563,1.09525 -7.53755,2.2268 -7.71539,2.51454 -0.65504,1.05988 5.26975,18.26161 6.44521,18.71268 0.94416,0.36231 6.00606,-0.74059 14.20901,-3.09587 1.38764,-0.39843 2.93076,3.01009 2.60559,5.75536 -0.1962,1.6564 -0.71938,2.06454 -3.72118,2.90297 -1.92109,0.53657 -10.80306,3.161 -19.73773,5.83206 -8.93466,2.67106 -16.39263,4.85648 -16.57326,4.85648 -0.18063,0 -0.80803,-0.92747 -1.39423,-2.06104 z"
         id="path71" /><path
         style="fill:#000000;fill-opacity:1;stroke:#000000;stroke-width:0;stroke-linecap:round;stroke-linejoin:round;stroke-dasharray:none;stroke-opacity:0.968958"
         d="m 657.16619,680.83454 c -6.18075,-1.69105 -10.26754,-7.36463 -10.81485,-15.01398 -0.39937,-5.58174 0.4562,-7.66587 4.73329,-11.52996 3.32602,-3.00486 7.57367,-5.0025 12.07097,-5.67692 4.08376,-0.61239 8.30809,1.21857 11.82852,5.12689 8.19459,9.09744 6.19587,20.0484 -4.60417,25.22627 -5.30331,2.54257 -8.89275,3.04992 -13.21376,1.8677 z m 7.43649,-7.8319 c 8.70463,-2.96597 11.60183,-11.72059 5.17541,-15.63877 -2.89457,-1.76482 -5.6395,-1.74953 -9.62285,0.0536 -6.57321,2.97545 -8.91409,7.27019 -6.60964,12.12646 1.25563,2.64606 3.83392,4.50703 6.31055,4.55489 0.79605,0.0154 2.93199,-0.47789 4.74653,-1.09617 z"
         id="path72" /><path
         style="fill:#000000;fill-opacity:1;stroke:#000000;stroke-width:0;stroke-linecap:round;stroke-linejoin:round;stroke-dasharray:none;stroke-opacity:0.968958"
         d="m 674.00836,716.72126 c -3.93982,-2.08119 -6.86735,-7.18027 -6.86735,-11.96134 0,-1.09531 -0.36471,-1.99148 -0.81048,-1.99148 -0.44576,0 -3.61888,1.72733 -7.05138,3.83853 l -6.24091,3.83853 -1.326,-1.56816 c -2.11358,-2.49958 -2.47278,-4.8155 -0.92195,-5.9443 4.13149,-3.00717 37.01952,-22.49881 37.62274,-22.29773 0.39619,0.13206 1.29123,1.2176 1.98897,2.4123 1.14585,1.96197 1.16887,2.3651 0.23784,4.16552 l -1.03079,1.99333 3.33204,1.52861 c 3.94819,1.81127 6.9828,5.77756 7.5275,9.8386 1.42647,10.63512 -16.3543,21.48599 -26.46023,16.14759 z m 11.12737,-7.36332 c 7.78017,-3.87702 10.11451,-9.75641 5.58225,-14.05975 -1.2487,-1.18564 -2.98396,-2.37074 -3.85613,-2.63356 -2.33814,-0.70459 -7.92135,1.40351 -11.23962,4.24383 -2.48996,2.13131 -2.8926,2.86218 -2.8926,5.25053 0,3.49971 1.56023,6.56113 4.0256,7.89883 2.71251,1.47179 4.28626,1.34036 8.3805,-0.69988 z"
         id="path73" /><path
         style="fill:#000000;fill-opacity:1;stroke:#000000;stroke-width:0;stroke-linecap:round;stroke-linejoin:round;stroke-dasharray:none;stroke-opacity:0.968958"
         d="m 698.53805,750.60495 c -4.03181,-2.95326 -6.24827,-6.46104 -6.24827,-9.88851 0,-3.7111 -0.8651,-3.84416 -4.58965,-0.70592 -1.50997,1.27227 -4.28443,3.47326 -6.16546,4.89107 -3.78233,2.8509 -4.47785,2.72262 -6.50635,-1.20008 l -1.10207,-2.13117 3.06922,-2.60097 c 1.68807,-1.43054 9.67077,-7.81829 17.73933,-14.19501 l 14.67012,-11.59402 1.94554,2.16749 c 1.59743,1.77968 1.86775,2.58215 1.51078,4.48494 -0.41641,2.21966 -0.32838,2.33739 2.08622,2.79037 3.03102,0.56863 6.80819,3.72359 8.35142,6.97569 2.37638,5.00785 0.84306,9.87373 -5.05388,16.03816 -6.24921,6.53269 -14.67202,8.65601 -19.70695,4.96796 z m 9.98422,-7.08086 c 3.33748,-1.68107 6.76502,-5.16497 7.42188,-7.54391 0.88703,-3.21257 0.26377,-5.64122 -2.09598,-8.16734 -1.86079,-1.99199 -2.30671,-2.13948 -5.53148,-1.82962 -3.88756,0.37354 -7.51877,2.78554 -10.26365,6.81754 -1.84547,2.71083 -1.98196,4.87132 -0.49002,7.75642 2.25022,4.35143 6.1269,5.40093 10.95925,2.96691 z"
         id="path74" /><path
         style="fill:#000000;fill-opacity:1;stroke:#000000;stroke-width:0;stroke-linecap:round;stroke-linejoin:round;stroke-dasharray:none;stroke-opacity:0.968958"
         d="m 706.61061,780.39116 c -1.15265,-0.72119 -3.29026,-2.5569 -4.75025,-4.07935 l -2.65452,-2.76811 2.54095,-1.93807 2.54095,-1.93808 2.58804,2.52716 c 2.20673,2.15481 3.05665,2.52715 5.76856,2.52715 2.24601,0 3.53615,-0.39297 4.3909,-1.33745 0.66571,-0.73561 4.1973,-8.20165 7.84798,-16.59121 3.65067,-8.38956 6.8637,-15.48904 7.14005,-15.77663 0.27635,-0.28759 1.63289,0.65549 3.01452,2.09573 l 2.51205,2.61862 -4.80171,10.47865 c -4.91994,10.73667 -5.41216,12.2251 -4.04285,12.2251 0.43343,0 5.47865,-2.2584 11.2116,-5.01867 l 10.42353,-5.01867 2.55036,2.55037 c 1.40271,1.4027 2.36596,2.73477 2.14056,2.96017 -0.66142,0.66142 -20.36189,9.54619 -30.69296,13.84229 -10.48065,4.35831 -14.11717,4.90006 -17.72776,2.641 z"
         id="path75" /><path
         style="fill:#000000;fill-opacity:1;stroke:#000000;stroke-width:0;stroke-linecap:round;stroke-linejoin:round;stroke-dasharray:none;stroke-opacity:0.968958"
         d="m 779.88076,822.09511 c -1.10842,-0.83993 -2.14395,-1.62349 -2.30119,-1.74126 -0.15724,-0.11776 2.12187,-3.82932 5.06468,-8.24791 2.94282,-4.41858 5.35058,-8.28217 5.35058,-8.58576 0,-0.78236 -14.81614,-10.6378 -15.99026,-10.63644 -1.12621,10e-4 -1.40004,0.32441 -7.53397,8.8897 l -4.61448,6.44355 -2.04478,-1.20423 c -4.75788,-2.80203 -5.11031,-1.83494 7.46,-20.47045 6.32908,-9.38287 11.95923,-17.35457 12.51144,-17.71487 0.71284,-0.46511 1.73147,-0.10025 3.5123,1.25806 1.37956,1.05224 2.50828,2.21972 2.50828,2.5944 0,0.37468 -1.72897,3.26371 -3.84217,6.42007 -2.11319,3.15635 -3.84217,6.23254 -3.84217,6.83598 0,1.07581 14.39129,11.14038 15.92959,11.14038 0.42274,0 2.61086,-2.59291 4.86249,-5.76202 2.25164,-3.16911 4.62274,-5.86387 5.26911,-5.98835 1.4328,-0.27593 5.37477,2.41504 5.37477,3.66906 0,0.89501 -12.77997,19.76787 -20.01861,29.56255 -2.05865,2.78557 -4.16989,5.06468 -4.69166,5.06468 -0.52176,0 -1.85554,-0.68721 -2.96395,-1.52714 z"
         id="path76" /><path
         style="fill:#000000;fill-opacity:1;stroke:#000000;stroke-width:0;stroke-linecap:round;stroke-linejoin:round;stroke-dasharray:none;stroke-opacity:0.968958"
         d="m 813.1436,840.46924 c -3.1555,-1.02806 -7.30747,-3.40847 -8.87352,-5.08737 -8.86424,-9.50299 -0.56122,-28.57438 12.41232,-28.51012 8.16343,0.0404 16.71993,7.86992 16.71993,15.29931 0,6.26617 -4.86804,14.26781 -10.43011,17.14407 -2.6036,1.34638 -7.48072,1.91907 -9.82862,1.15411 z m 6.89342,-8.14427 c 8.32637,-7.00618 7.37814,-18.4828 -1.5271,-18.4828 -4.94628,0 -8.66069,3.54442 -10.3397,9.86651 -1.07268,4.03903 -0.069,6.91442 3.12865,8.96305 3.03073,1.9417 6.16635,1.81727 8.73815,-0.34676 z"
         id="path77" /><path
         style="fill:#000000;fill-opacity:1;stroke:#000000;stroke-width:0;stroke-linecap:round;stroke-linejoin:round;stroke-dasharray:none;stroke-opacity:0.968958"
         d="m 856.9793,858.43774 c -1.60087,-0.58469 -1.92108,-1.11307 -1.92108,-3.16993 0,-2.23558 -0.14818,-2.42322 -1.5718,-1.99035 -6.8986,2.09761 -10.51528,1.52291 -14.31247,-2.27428 -2.32213,-2.32213 -2.42474,-2.6266 -2.02664,-6.01379 0.50412,-4.28931 4.16329,-16.76114 6.40444,-21.82878 l 1.61349,-3.64837 2.67611,0.72277 c 1.47186,0.39752 2.94715,0.98031 3.27842,1.29509 0.33267,0.31611 -0.81265,4.8998 -2.55842,10.23909 -3.90931,11.95623 -4.18974,13.21224 -3.31486,14.84696 0.78611,1.46887 4.17785,2.85345 6.98994,2.85345 3.53789,0 5.60533,-2.95724 9.45642,-13.52641 1.27919,-3.51067 2.54385,-6.93316 2.81036,-7.60554 0.26651,-0.67238 1.09526,-1.22251 1.84167,-1.22251 1.76312,0 5.47918,1.92691 5.47918,2.84115 0,0.94394 -7.23724,20.4242 -9.42994,25.38229 -1.78997,4.04744 -2.1906,4.27674 -5.41482,3.09916 z"
         id="path78" /><path
         style="fill:#000000;fill-opacity:1;stroke:#000000;stroke-width:0;stroke-linecap:round;stroke-linejoin:round;stroke-dasharray:none;stroke-opacity:0.968958"
         d="m 880.55628,864.93216 c -4.19124,-2.00065 -8.03364,-5.01282 -8.03364,-6.2978 0,-0.83295 1.76399,-2.65087 3.44539,-3.55073 0.96853,-0.51834 1.68454,-0.19714 3.26377,1.4641 2.65003,2.78764 5.253,4.0991 8.13584,4.0991 2.73891,0 4.01658,-1.04441 4.01658,-3.28331 0,-1.88369 -0.90316,-2.75543 -6.94317,-6.70157 -7.40658,-4.83897 -8.71816,-9.60077 -4.09479,-14.86649 1.93417,-2.2029 2.41979,-2.39313 6.10926,-2.39313 5.10814,0 9.72703,1.39368 13.28108,4.00736 l 2.80029,2.05936 -1.55952,1.40346 c -2.68256,2.41414 -3.25011,2.48109 -5.43655,0.64132 -3.69757,-3.1113 -9.91528,-3.439 -10.32529,-0.54419 -0.29585,2.08889 1.41258,3.96175 5.96666,6.54088 7.4125,4.19796 9.66014,9.17067 6.493,14.36521 -3.29382,5.40229 -9.77888,6.56014 -17.11891,3.05643 z"
         id="path79" /><path
         style="fill:#000000;fill-opacity:1;stroke:#000000;stroke-width:0;stroke-linecap:round;stroke-linejoin:round;stroke-dasharray:none;stroke-opacity:0.968958"
         d="m 916.66015,872.15977 c -6.77418,-2.94238 -9.47577,-7.12428 -9.46838,-14.65653 0.0106,-10.84211 6.36287,-17.99726 15.9777,-17.99726 9.14732,0 14.27408,5.38306 14.30549,15.02069 l 0.0153,4.70777 -6.46184,-0.51631 c -3.55401,-0.28398 -8.66235,-0.51632 -11.35187,-0.51632 h -4.89004 l 0.14799,2.09573 c 0.0976,1.38254 0.98563,2.86837 2.6094,4.36611 3.10404,2.86312 7.6161,3.16467 10.9103,0.72917 l 2.0846,-1.54122 2.19843,2.19844 c 1.95358,1.95358 2.08783,2.33208 1.20536,3.39836 -2.82963,3.41901 -12.25051,4.89701 -17.28248,2.71137 z m 13.12206,-18.81938 c 0.50575,-0.6094 0.66468,-1.84436 0.39523,-3.07116 -1.00296,-4.56642 -5.74447,-6.07834 -10.85014,-3.45977 -3.896,1.99816 -4.6533,4.43547 -1.61715,5.2047 1.53588,0.38912 7.39447,1.61768 10.78776,2.26221 0.24111,0.0458 0.81905,-0.37539 1.2843,-0.93598 z"
         id="path80" /><path
         style="fill:#000000;fill-opacity:1;stroke:#000000;stroke-width:0;stroke-linecap:round;stroke-linejoin:round;stroke-dasharray:none;stroke-opacity:0.968958"
         d="m 962.37975,866.41009 c -0.22833,-4.89877 -0.6107,-14.46631 -0.84969,-21.26121 l -0.43454,-12.35435 2.34357,-0.36033 c 5.14536,-0.79112 17.20252,-0.98606 20.29598,-0.32816 3.9724,0.84484 7.91724,4.78079 8.63703,8.61756 0.78365,4.17723 -0.86699,8.57769 -3.99371,10.64685 -2.9113,1.92661 -3.29813,3.0089 -1.58392,4.43157 2.12791,1.76601 7.97914,15.06376 7.97914,18.13372 0,1.20195 -0.47995,1.38121 -3.69818,1.38121 h -3.69819 l -1.91874,-5.76326 c -3.68377,-11.06482 -4.90273,-12.37121 -11.56027,-12.38944 l -3.76025,-0.0103 0.32792,9.0815 0.32793,9.0815 h -3.99946 -3.99946 z m 20.92366,-17.94723 c 1.6556,-2.26419 1.26866,-7.16258 -0.72314,-9.15438 -1.46052,-1.46052 -2.3666,-1.7131 -6.11255,-1.70399 -2.41882,0.006 -4.82383,0.28061 -5.34446,0.61051 -1.03795,0.6577 -1.98002,8.99197 -1.23566,10.93172 0.37971,0.9895 1.34623,1.12742 6.43554,0.91827 4.9461,-0.20325 6.16136,-0.48219 6.98027,-1.60213 z"
         id="path81" /><path
         style="fill:#000000;fill-opacity:1;stroke:#000000;stroke-width:0;stroke-linecap:round;stroke-linejoin:round;stroke-dasharray:none;stroke-opacity:0.968958"
         d="m 1006.7331,870.76866 c -6.97644,-6.30277 -4.9777,-12.1425 5.8713,-17.15479 6.2903,-2.90613 7.6445,-4.11057 6.9791,-6.20722 -1.2191,-3.84092 -7.8519,-3.56072 -12.3717,0.52262 l -2.8216,2.54921 -1.6438,-2.06145 c -1.4308,-1.79447 -1.5243,-2.24432 -0.7218,-3.47339 1.5044,-2.30415 9.7324,-6.14837 13.8706,-6.48052 3.0162,-0.24209 4.1062,-10e-4 6.0587,1.33882 3.8301,2.62875 4.8244,4.6261 6.0301,12.11268 1.527,9.48183 2.0885,11.03122 4.5183,12.46654 2.4765,1.46287 2.6918,3.44939 0.5376,4.95827 -2.2917,1.60515 -5.0416,1.32672 -7.5236,-0.76173 l -2.1977,-1.84921 -2.0364,2.22953 c -2.4184,2.6479 -5.9683,4.2632 -9.369,4.2632 -1.8379,0 -3.1565,-0.62429 -5.1801,-2.45256 z m 12.8637,-5.25797 c 0.8452,-0.93391 1.3917,-2.85559 1.5894,-5.58861 0.298,-4.11959 0.2809,-4.16529 -1.557,-4.16529 -2.4225,0 -7.1466,2.42917 -8.0664,4.14782 -1.003,1.87408 -0.9047,6.14067 0.1513,6.56676 2.328,0.93937 6.6386,0.41404 7.8827,-0.96068 z"
         id="path82" /><path
         style="fill:#000000;fill-opacity:1;stroke:#000000;stroke-width:0;stroke-linecap:round;stroke-linejoin:round;stroke-dasharray:none;stroke-opacity:0.968958"
         d="m 1040.6537,854.88357 c -4.5169,-16.92564 -8.2005,-32.14919 -7.8611,-32.48859 0.8704,-0.87038 5.775,-0.92166 6.4733,-0.0677 0.4254,0.52011 1.6405,4.18487 2.7004,8.1439 l 1.927,7.19825 2.8593,-2.75617 c 3.7315,-3.59692 6.641,-5.00466 10.3343,-5.00026 7.9168,0.009 14.0563,8.69625 14.0688,19.90587 0.01,4.78416 -1.2336,7.68297 -4.4351,10.37683 -3.2283,2.71644 -7.1252,3.68303 -10.8413,2.68912 -4.9014,-1.31092 -4.8834,-1.31252 -4.6974,0.41805 0.1342,1.24806 -0.3692,1.83469 -2.2479,2.61966 -4.869,2.03438 -4.7485,2.19495 -8.2803,-11.03898 z m 20.2053,0.59379 c 1.9753,-1.97527 2.3745,-2.88679 2.3713,-5.41397 -0.01,-6.36263 -3.3402,-12.45337 -7.3656,-13.46367 -2.1598,-0.54209 -6.1316,1.21986 -7.5174,3.33488 -2.84,4.33434 -1.8727,11.59046 2.0708,15.53394 1.9313,1.93129 2.9234,2.38398 5.2249,2.38398 2.2993,0 3.2936,-0.45273 5.216,-2.37516 z"
         id="path83" /><path
         style="fill:#000000;fill-opacity:1;stroke:#000000;stroke-width:0;stroke-linecap:round;stroke-linejoin:round;stroke-dasharray:none;stroke-opacity:0.968958"
         d="m 1083.3689,848.24709 c -3.0261,-6.54084 -14.5461,-34.43119 -14.5461,-35.21679 0,-0.70532 4.5488,-3.37959 5.7486,-3.37959 0.6824,0 2.0651,2.65603 4,7.6837 1.6264,4.22603 3.1807,7.82193 3.4541,7.9909 0.2734,0.16897 1.0717,-0.75981 1.7741,-2.06395 1.5058,-2.79624 5.361,-5.51754 9.3308,-6.5865 8.0464,-2.16666 16.9922,8.36363 17.1779,20.22035 0.053,3.37455 -0.2827,5.12767 -1.3064,6.82597 -1.7821,2.95625 -6.1362,5.04721 -10.5355,5.05938 -5.0889,0.0141 -6.7746,0.60867 -6.3482,2.23917 0.2714,1.03755 -0.2043,1.59143 -2.0169,2.34881 -1.3047,0.54511 -2.7168,0.9911 -3.1382,0.9911 -0.4214,0 -2.0388,-2.75065 -3.5942,-6.11255 z m 17.3956,-6.82787 c 2.269,-2.26903 2.426,-2.69291 2.0045,-5.41397 -0.7887,-5.09177 -3.7464,-10.29127 -6.5113,-11.44653 -4.5309,-1.89313 -9.5292,0.54165 -10.3758,5.05425 -0.5987,3.1912 1.3946,9.49224 3.8263,12.09536 1.7141,1.83494 2.5398,2.17265 5.3121,2.17265 2.8242,0 3.6261,-0.34368 5.7442,-2.46176 z"
         id="path84" /><path
         style="fill:#000000;fill-opacity:1;stroke:#000000;stroke-width:0;stroke-linecap:round;stroke-linejoin:round;stroke-dasharray:none;stroke-opacity:0.968958"
         d="m 1105.1995,801.52287 c -1.8759,-2.38478 -1.8252,-3.43413 0.2668,-5.52616 2.1522,-2.15223 4.5824,-2.18856 6.5465,-0.0979 2.0593,2.19211 1.9117,3.5171 -0.6304,5.65614 -2.7271,2.29464 -4.3594,2.28616 -6.1829,-0.0321 z"
         id="path85" /><path
         style="fill:#000000;fill-opacity:1;stroke:#000000;stroke-width:0;stroke-linecap:round;stroke-linejoin:round;stroke-dasharray:none;stroke-opacity:0.968958"
         d="m 1122.7498,833.91654 c -3.3103,-5.90509 -12.711,-24.03082 -12.711,-24.50848 0,-0.85999 5.7591,-4.05671 6.2772,-3.48432 1.7234,1.90379 15.05,28.85641 14.4016,29.1267 -0.4231,0.17641 -1.9276,0.81646 -3.3433,1.42233 l -2.574,1.10158 z"
         id="path86" /><path
         style="fill:#000000;fill-opacity:1;stroke:#000000;stroke-width:0;stroke-linecap:round;stroke-linejoin:round;stroke-dasharray:none;stroke-opacity:0.968958"
         d="m 1143.9077,824.69262 c -2.075,-0.89246 -4.5255,-3.8357 -9.9897,-11.99858 -4.0593,-6.06401 -4.8017,-6.69464 -7.2489,-6.15715 -3.588,0.78805 -5.4956,-3.41603 -2.4841,-5.47447 l 1.5718,-1.07437 -1.6276,-2.91367 c -0.8951,-1.60253 -1.5239,-2.98293 -1.3971,-3.06756 0.1267,-0.0846 1.5523,-1.1728 3.1679,-2.41816 l 2.9375,-2.26428 1.4428,2.82811 c 1.7344,3.39972 3.1035,3.57931 7.104,0.93189 l 2.8654,-1.89622 1.6722,2.07086 1.6722,2.07086 -1.5961,1.39716 c -0.8778,0.76843 -2.5335,2.08728 -3.6793,2.93076 l -2.0833,1.53361 2.0117,3.77019 c 2.7426,5.14014 6.3478,10.00126 8.4284,11.36453 1.6225,1.06314 1.8941,1.03705 4.5104,-0.43341 2.6485,-1.48853 2.8708,-1.50772 4.57,-0.39434 0.9824,0.64367 1.7861,1.57294 1.7861,2.06503 0,1.59045 -4.5583,5.36845 -8.1017,6.71484 -2.9577,1.12386 -3.7457,1.18288 -5.5326,0.41437 z"
         id="path87" /><path
         style="fill:#000000;fill-opacity:1;stroke:#000000;stroke-width:0;stroke-linecap:round;stroke-linejoin:round;stroke-dasharray:none;stroke-opacity:0.968958"
         d="m 1174.5879,797.08431 c -10.45,-12.28679 -19.9902,-24.12919 -20.7638,-25.77424 -0.719,-1.52926 -0.4421,-1.97302 3.3885,-5.43034 7.7963,-7.0364 12.0338,-9.90812 15.3552,-10.40621 4.4498,-0.66728 6.4904,0.0632 10.011,3.58375 3.0931,3.09312 3.0987,3.10779 2.5792,6.76255 -1.017,7.15554 -1.051,7.04052 2.2529,7.61509 3.4099,0.59299 11.4196,4.62001 14.7966,7.4393 l 2.2931,1.91433 -2.3053,2.25385 c -1.2679,1.23962 -2.5566,2.25386 -2.8638,2.25386 -0.3071,0 -4.1565,-2.07649 -8.5541,-4.61442 l -7.9957,-4.61441 -3.8793,2.69333 c -2.1337,1.48133 -3.8831,3.1123 -3.8877,3.62438 0,0.51208 2.3582,3.92733 5.2504,7.58945 5.685,7.19809 5.6814,7.17613 1.6497,10.04694 l -1.948,1.38709 z m 1.1195,-22.23402 c 2.9629,-2.85589 3.4905,-3.75826 3.4905,-5.96966 0,-3.34246 -2.5014,-6.03457 -5.6071,-6.03457 -4.0517,0 -12.1335,5.92734 -10.6876,7.83851 6.7371,8.90498 7.597,9.18475 12.8042,4.16572 z"
         id="path88" /><path
         style="fill:#000000;fill-opacity:1;stroke:#000000;stroke-width:0;stroke-linecap:round;stroke-linejoin:round;stroke-dasharray:none;stroke-opacity:0.968958"
         d="m 1206.9597,769.56878 c -7.0263,-2.60589 -13.0692,-10.40589 -13.0848,-16.88957 -0.01,-3.7219 2.9231,-9.52612 6.1601,-12.19432 6.4075,-5.28162 11.7825,-5.10331 17.7145,0.58764 l 3.3994,3.26124 -6.6546,7.22434 c -3.6601,3.97338 -6.6547,7.76142 -6.6547,8.41785 0,1.90305 1.471,2.8701 4.3659,2.8701 4.9746,0 8.9071,-3.47254 8.9071,-7.86543 0,-2.41836 1.4739,-4.0293 3.8473,-4.20495 2.0493,-0.15167 2.0947,-0.0832 2.3003,3.47186 0.5727,9.90335 -11.1181,18.72671 -20.3005,15.32124 z m 1.3149,-18.03491 c 2.495,-2.39587 4.4125,-4.81172 4.2971,-5.41398 -0.2983,-1.55658 -4.5651,-2.78195 -7.1511,-2.05366 -3.2444,0.91375 -4.5668,3.00267 -4.5668,7.21427 0,6.07269 1.3138,6.11754 7.4208,0.25337 z"
         id="path89" /><path
         style="fill:#000000;fill-opacity:1;stroke:#000000;stroke-width:0;stroke-linecap:round;stroke-linejoin:round;stroke-dasharray:none;stroke-opacity:0.968958"
         d=""
         id="path90" /><path
         style="fill:#000000;fill-opacity:1;stroke:#000000;stroke-width:0;stroke-linecap:round;stroke-linejoin:round;stroke-dasharray:none;stroke-opacity:0.968958"
         d="m 1250.9659,714.58149 c -5.8216,-1.36879 -11.4881,-5.80177 -14.139,-11.06101 -3.1853,-6.31947 0.5891,-16.42603 7.4786,-20.02528 2.6196,-1.36852 6.7741,-1.28676 7.3232,0.14411 0.8007,2.08662 -0.6915,4.68448 -3.0404,5.29313 -1.2161,0.31513 -3.0569,1.57812 -4.0906,2.80664 -1.6185,1.92341 -1.8345,2.70215 -1.5555,5.60644 0.5274,5.48856 5.717,9.61438 12.0934,9.61438 2.7547,0 3.5978,-0.35654 5.6164,-2.37516 2.5791,-2.57913 3.1891,-6.12064 1.5156,-8.80026 -1.1086,-1.77514 0.4213,-3.4812 3.314,-3.69556 1.5134,-0.11216 2.2239,0.27836 2.9075,1.59802 1.2595,2.43146 1.1482,8.7499 -0.2044,11.60026 -1.7024,3.5876 -8.3279,9.35704 -10.7453,9.35704 -1.0903,0 -2.401,0.12505 -2.9127,0.27788 -0.5117,0.15283 -2.1141,-4.6e-4 -3.5608,-0.34063 z"
         id="path91" /><path
         style="fill:#000000;fill-opacity:1;stroke:#000000;stroke-width:0;stroke-linecap:round;stroke-linejoin:round;stroke-dasharray:none;stroke-opacity:0.968958"
         d="m 1270.6096,683.2688 c -3.7669,-1.20481 -22.2525,-9.78938 -22.2525,-10.33389 0,-1.13481 3.0181,-5.7939 3.7533,-5.7939 0.5118,0 4.1992,1.537 8.1941,3.41556 9.8614,4.63725 13.6287,5.86022 15.2988,4.96643 3.7685,-2.01683 4.581,-6.97957 1.7027,-10.40018 -1.051,-1.2491 -5.37,-3.93537 -10.4756,-6.51543 -5.3038,-2.68024 -8.6874,-4.79817 -8.6877,-5.43792 -2e-4,-0.57633 0.6186,-2.06297 1.3751,-3.30366 0.9949,-1.6318 1.7188,-2.13685 2.617,-1.82582 2.4471,0.84741 25.0199,11.96136 26.2819,12.94015 1.2057,0.93518 1.2183,1.16763 0.1954,3.6157 -1.0508,2.51488 -1.1929,2.59757 -3.666,2.13361 -2.4736,-0.46405 -2.5522,-0.41823 -2.0372,1.18695 1.3809,4.30427 1.2307,6.92702 -0.6123,10.69393 -1.309,2.67547 -2.5161,4.0776 -4.1972,4.87533 -2.8359,1.34573 -2.5813,1.35311 -7.4898,-0.21686 z"
         id="path92" /><path
         style="fill:#000000;fill-opacity:1;stroke:#000000;stroke-width:0;stroke-linecap:round;stroke-linejoin:round;stroke-dasharray:none;stroke-opacity:0.968958"
         d=""
         id="path93" /><path
         style="fill:#000000;fill-opacity:1;stroke:#000000;stroke-width:0;stroke-linecap:round;stroke-linejoin:round;stroke-dasharray:none;stroke-opacity:0.968958"
         d="m 1269.3144,490.86865 c 0,-5.69248 0.088,-6.04749 1.5718,-6.34934 0.8644,-0.17585 9.1164,-0.81465 18.3376,-1.41955 9.2212,-0.60489 19.6249,-1.29239 23.1193,-1.52777 7.4289,-0.5004 6.9686,-0.95849 7.6653,7.62824 l 0.4772,5.88091 -7.5973,0.44297 c -4.1785,0.24363 -15.692,0.65248 -25.5856,0.90856 l -17.9883,0.46559 z"
         id="path94" /><path
         style="fill:#000000;fill-opacity:1;stroke:#000000;stroke-width:0;stroke-linecap:round;stroke-linejoin:round;stroke-dasharray:none;stroke-opacity:0.968958"
         d="m 1245.8422,497.80595 c -1.938,-1.938 -2.3752,-2.90871 -2.3752,-5.27402 0,-5.31875 3.1349,-9.11666 7.5252,-9.11666 3.3728,0 6.0848,1.66931 7.4765,4.60204 1.7373,3.66116 1.0376,7.04857 -2.0435,9.89343 -3.5056,3.23669 -7.2789,3.19932 -10.583,-0.10479 z"
         id="path95" /><path
         style="fill:#000000;fill-opacity:1;stroke:#000000;stroke-width:0;stroke-linecap:round;stroke-linejoin:round;stroke-dasharray:none;stroke-opacity:0.968958"
         d="m 1254.9122,470.59407 c -4.8039,-1.22074 -9.384,-4.00453 -12.516,-7.60726 -3.4668,-3.98774 -4.2746,-6.13048 -4.8595,-12.88925 -0.4549,-5.25673 -0.3471,-6.0476 1.3203,-9.68985 0.9987,-2.18126 1.8157,-4.3559 1.8157,-4.83251 0,-1.029 -0.2117,-0.99838 -14.8943,2.15479 -6.0786,1.30543 -11.6497,2.3735 -12.3802,2.3735 -1.0052,0 -1.5795,-0.89176 -2.362,-3.66753 -1.9079,-6.76844 -2.0527,-8.6602 -0.7024,-9.17837 4.4827,-1.72017 69.5379,-15.73893 74.1396,-15.97637 l 3.2691,-0.16867 1.2219,3.84217 c 0.6721,2.1132 1.2411,4.85932 1.2646,6.10249 0.04,2.10655 -0.1712,2.31417 -3.1009,3.05189 -3.6127,0.90969 -4.0346,2.22479 -1.1863,3.69772 5.3863,2.78537 10.6171,11.71952 10.6171,18.13399 0,7.63564 -4.9547,15.44615 -12.3527,19.47264 -8.1388,4.42968 -22.3553,6.94385 -29.294,5.18062 z m 18.1269,-15.81917 c 6.9885,-2.64449 10.9454,-7.26369 10.9454,-12.77726 0,-1.28821 -0.8645,-4.04895 -1.9211,-6.13499 -2.8064,-5.54059 -6.1371,-7.12271 -14.2583,-6.77277 -5.2842,0.22769 -6.7151,0.58938 -11.3038,2.85725 -3.7718,1.86411 -5.681,3.28772 -6.7681,5.0468 -4.0694,6.58437 -1.6044,15.39158 5.2054,18.59834 3.7641,1.77252 12.2717,1.38835 18.1005,-0.81737 z"
         id="path96" /><path
         style="fill:#000000;fill-opacity:1;stroke:#000000;stroke-width:0;stroke-linecap:round;stroke-linejoin:round;stroke-dasharray:none;stroke-opacity:0.968958"
         d="m 1233.0129,744.0304 c -1.5361,-2.87033 -0.8881,-4.11842 3.124,-6.01642 2.1359,-1.01045 4.6667,-2.89457 5.6898,-4.23591 1.5692,-2.0574 1.7276,-2.66871 1.0667,-4.11913 -1.4168,-3.10948 -3.5917,-2.88523 -9.5141,0.98097 -6.3137,4.12165 -8.9164,4.80604 -12.532,3.29536 -3.345,-1.39765 -5.5314,-5.84038 -4.6964,-9.54293 1.1753,-5.21074 4.6506,-9.83329 8.9622,-11.92048 3.0863,-1.49408 3.2204,-1.50221 4.1353,-0.25093 1.5976,2.18472 1.1354,4.1092 -1.3247,5.51706 -5.1126,2.92573 -6.4762,5.492 -4.6908,8.82799 1.1137,2.081 2.7427,1.64739 7.8792,-2.09734 5.2739,-3.84491 8.7548,-5.27167 11.1214,-4.55856 2.3718,0.71465 5.9961,4.45637 6.8641,7.08651 1.638,4.96299 -3.6173,13.81514 -10.0505,16.92938 -3.7364,1.80875 -5.1093,1.83252 -6.0342,0.10443 z"
         id="path97" /><path
         style="fill:#000000;fill-opacity:1;stroke:#000000;stroke-width:0;stroke-linecap:round;stroke-linejoin:round;stroke-dasharray:none;stroke-opacity:0.968958"
         d="m 1278.2812,644.84416 c -5.0425,-1.97197 -7.3206,-3.9499 -9.3673,-8.13333 -1.5866,-3.24285 -1.8163,-4.4211 -1.4557,-7.46583 0.5305,-4.4796 3.6533,-10.8222 6.2562,-12.70671 2.3594,-1.70822 9.3642,-1.97086 12.8897,-0.48329 2.9133,1.22924 2.8981,2.0685 -0.2162,11.90349 -2.8628,9.04081 -2.8911,10.79346 -0.1794,11.10672 2.7842,0.32165 5.8111,-1.56554 7.1977,-4.48765 0.9608,-2.02476 1.1293,-3.54209 0.7761,-6.9895 -0.4311,-4.20809 -0.3698,-4.4566 1.3826,-5.6048 2.364,-1.549 3.8203,-0.69726 5.0644,2.962 1.633,4.80338 -0.013,11.81354 -3.841,16.36347 -3.9467,4.69032 -11.7447,6.17998 -18.5071,3.53543 z m 2.563,-15.02547 c 1.0576,-3.25093 1.7351,-6.40002 1.5056,-6.99798 -0.6858,-1.78718 -4.3632,-1.326 -6.802,0.85302 -2.4455,2.18507 -2.9482,5.36272 -1.4287,9.03111 0.8156,1.96899 3.339,3.86233 4.3649,3.27505 0.2406,-0.13772 1.3027,-2.91026 2.3602,-6.1612 z"
         id="path98" /></g></g><g
     id="layer1"
     transform="translate(-584.01028,-142.50959)" /></svg>
